<svg width="122" height="39" viewBox="0 0 122 39" fill="none" xmlns="http://www.w3.org/2000/svg">
<g clip-path="url(#clip0_10433_12591)">
<path d="M248 0C259.046 6.28151e-06 268 8.95431 268 20V424C268 435.046 259.046 444 248 444H-127C-138.046 444 -147 435.046 -147 424V20C-147 8.95431 -138.046 0 -127 0H4.867C9.249 0 13.326 2.03517 16.752 4.76611C26.796 12.7708 42.782 17.9482 60.787 17.9482C78.792 17.9482 94.777 12.7707 104.821 4.76605C108.248 2.03513 112.324 0 116.706 0H248Z" fill="#FFFBF4"/>
<mask id="mask0_10433_12591" style="mask-type:luminance" maskUnits="userSpaceOnUse" x="-147" y="0" width="415" height="444">
<path d="M248 0C259.046 6.28151e-06 268 8.95431 268 20V424C268 435.046 259.046 444 248 444H-127C-138.046 444 -147 435.046 -147 424V20C-147 8.95431 -138.046 0 -127 0H4.867C9.249 0 13.326 2.03517 16.752 4.76611C26.796 12.7708 42.782 17.9482 60.787 17.9482C78.792 17.9482 94.777 12.7707 104.821 4.76605C108.248 2.03513 112.324 0 116.706 0H248Z" fill="white"/>
</mask>
<g mask="url(#mask0_10433_12591)">
<path d="M248 0V1C258.493 1.00001 267 9.50659 267 20H268H269C269 8.40202 259.598 -0.999993 248 -1V0ZM268 20H267V424H268H269V20H268ZM268 424H267C267 434.493 258.493 443 248 443V444V445C259.598 445 269 435.598 269 424H268ZM248 444V443H-127V444V445H248V444ZM-127 444V443C-137.493 443 -146 434.493 -146 424H-147H-148C-148 435.598 -138.598 445 -127 445V444ZM-147 424H-146V20H-147H-148V424H-147ZM-147 20H-146C-146 9.50659 -137.493 1 -127 1V0V-1C-138.598 -1 -148 8.40202 -148 20H-147ZM-127 0V1H4.867V0V-1H-127V0ZM16.752 4.76611L16.129 5.54814C26.391 13.7269 42.615 18.9482 60.787 18.9482V17.9482V16.9482C42.95 16.9482 27.201 11.8148 17.376 3.98408L16.752 4.76611ZM60.787 17.9482V18.9482C78.959 18.9482 95.182 13.7267 105.444 5.54807L104.821 4.76605L104.198 3.98402C94.372 11.8147 78.624 16.9482 60.787 16.9482V17.9482ZM116.706 0V1H248V0V-1H116.706V0ZM104.821 4.76605L105.444 5.54807C108.774 2.89436 112.635 1 116.706 1V0V-1C112.013 -1 107.721 1.1759 104.198 3.98402L104.821 4.76605ZM4.867 0V1C8.938 1 12.799 2.8944 16.129 5.54814L16.752 4.76611L17.376 3.98408C13.852 1.17595 9.56 -1 4.867 -1V0Z" fill="#CCCCCC" fill-opacity="0.5"/>
</g>
<path d="M248 10C253.523 10 258 14.4772 258 20V424C258 429.523 253.523 434 248 434H-127C-132.523 434 -137 429.523 -137 424V20C-137 14.4772 -132.523 10 -127 10H2.38699C7.20599 10 11.794 11.8453 15.799 14.5251C27.66 22.4617 43.576 27.3174 61.071 27.3174C78.567 27.3173 94.482 22.4616 106.343 14.5251C110.348 11.8453 114.936 10 119.754 10H248Z" fill="#FCFAF9"/>
<mask id="mask1_10433_12591" style="mask-type:luminance" maskUnits="userSpaceOnUse" x="-137" y="10" width="395" height="424">
<path d="M248 10C253.523 10 258 14.4772 258 20V424C258 429.523 253.523 434 248 434H-127C-132.523 434 -137 429.523 -137 424V20C-137 14.4772 -132.523 10 -127 10H2.38699C7.20599 10 11.794 11.8453 15.799 14.5251C27.66 22.4617 43.576 27.3174 61.071 27.3174C78.567 27.3173 94.482 22.4616 106.343 14.5251C110.348 11.8453 114.936 10 119.754 10H248Z" fill="white"/>
</mask>
<g mask="url(#mask1_10433_12591)">
<path d="M248 10V11C252.971 11 257 15.0294 257 20H258H259C259 13.9249 254.075 9 248 9V10ZM258 20H257V424H258H259V20H258ZM258 424H257C257 428.971 252.971 433 248 433V434V435C254.075 435 259 430.075 259 424H258ZM248 434V433H-127V434V435H248V434ZM-127 434V433C-131.971 433 -136 428.971 -136 424H-137H-138C-138 430.075 -133.075 435 -127 435V434ZM-137 424H-136V20H-137H-138V424H-137ZM-137 20H-136C-136 15.0294 -131.971 11 -127 11V10V9C-133.075 9 -138 13.9249 -138 20H-137ZM-127 10V11H2.38699V10V9H-127V10ZM15.799 14.5251L15.243 15.3562C27.284 23.4136 43.398 28.3174 61.071 28.3174V27.3174V26.3174C43.754 26.3174 28.035 21.5098 16.355 13.694L15.799 14.5251ZM61.071 27.3174V28.3174C78.745 28.3173 94.858 23.4135 106.899 15.3562L106.343 14.5251L105.787 13.694C94.106 21.5098 78.389 26.3173 61.071 26.3174V27.3174ZM119.754 10V11H248V10V9H119.754V10ZM106.343 14.5251L106.899 15.3562C110.796 12.7488 115.192 11 119.754 11V10V9C114.679 9 109.9 10.9418 105.787 13.694L106.343 14.5251ZM2.38699 10V11C6.94999 11 11.346 12.7488 15.243 15.3562L15.799 14.5251L16.355 13.694C12.242 10.9418 7.46199 9 2.38699 9V10Z" fill="#CCCCCC" fill-opacity="0.5"/>
</g>
</g>
<defs>
<clipPath id="clip0_10433_12591">
<rect width="122" height="39" fill="white"/>
</clipPath>
</defs>
</svg>
