<svg viewBox="0 0 415 444" fill="none" xmlns="http://www.w3.org/2000/svg">
<mask id="path-1-inside-1_10431_12637" fill="white">
<path d="M395 0C406.046 6.28151e-06 415 8.95431 415 20V424C415 435.046 406.046 444 395 444H20C8.95431 444 0 435.046 0 424V20C0 8.95431 8.95431 0 20 0H151.867C156.249 0 160.326 2.03517 163.752 4.76611C173.796 12.7708 189.782 17.9482 207.787 17.9482C225.792 17.9482 241.777 12.7707 251.821 4.76605C255.248 2.03513 259.324 0 263.706 0H395Z"/>
</mask>
<path d="M395 0C406.046 6.28151e-06 415 8.95431 415 20V424C415 435.046 406.046 444 395 444H20C8.95431 444 0 435.046 0 424V20C0 8.95431 8.95431 0 20 0H151.867C156.249 0 160.326 2.03517 163.752 4.76611C173.796 12.7708 189.782 17.9482 207.787 17.9482C225.792 17.9482 241.777 12.7707 251.821 4.76605C255.248 2.03513 259.324 0 263.706 0H395Z" fill="#FFFBF4"/>
<path d="M395 0V-1V0ZM20 444V445V444ZM207.787 17.9482V18.9482V17.9482ZM251.821 4.76605L251.198 3.98402L251.821 4.76605ZM163.752 4.76611L164.376 3.98408L163.752 4.76611ZM395 0V1C405.493 1.00001 414 9.50659 414 20H415H416C416 8.40202 406.598 -0.999993 395 -1V0ZM415 20H414V424H415H416V20H415ZM415 424H414C414 434.493 405.493 443 395 443V444V445C406.598 445 416 435.598 416 424H415ZM395 444V443H20V444V445H395V444ZM20 444V443C9.50659 443 1 434.493 1 424H0H-1C-1 435.598 8.40203 445 20 445V444ZM0 424H1V20H0H-1V424H0ZM0 20H1C1 9.50659 9.50659 1 20 1V0V-1C8.40202 -1 -1 8.40202 -1 20H0ZM20 0V1H151.867V0V-1H20V0ZM163.752 4.76611L163.129 5.54814C173.391 13.7269 189.615 18.9482 207.787 18.9482V17.9482V16.9482C189.95 16.9482 174.201 11.8148 164.376 3.98408L163.752 4.76611ZM207.787 17.9482V18.9482C225.959 18.9482 242.182 13.7267 252.444 5.54807L251.821 4.76605L251.198 3.98402C241.372 11.8147 225.624 16.9482 207.787 16.9482V17.9482ZM263.706 0V1H395V0V-1H263.706V0ZM251.821 4.76605L252.444 5.54807C255.774 2.89436 259.635 1 263.706 1V0V-1C259.013 -1 254.721 1.1759 251.198 3.98402L251.821 4.76605ZM151.867 0V1C155.938 1 159.799 2.8944 163.129 5.54814L163.752 4.76611L164.376 3.98408C160.852 1.17595 156.56 -1 151.867 -1V0Z" fill="#CCCCCC" fill-opacity="0.5" mask="url(#path-1-inside-1_10431_12637)"/>
<mask id="path-3-inside-2_10431_12637" fill="white">
<path d="M395 10C400.523 10 405 14.4772 405 20V424C405 429.523 400.523 434 395 434H20C14.4772 434 10 429.523 10 424V20C10 14.4772 14.4772 10 20 10H149.387C154.206 10 158.794 11.8453 162.799 14.5251C174.66 22.4617 190.576 27.3174 208.071 27.3174C225.567 27.3173 241.482 22.4616 253.343 14.5251C257.348 11.8453 261.936 10 266.754 10H395Z"/>
</mask>
<path d="M395 10C400.523 10 405 14.4772 405 20V424C405 429.523 400.523 434 395 434H20C14.4772 434 10 429.523 10 424V20C10 14.4772 14.4772 10 20 10H149.387C154.206 10 158.794 11.8453 162.799 14.5251C174.66 22.4617 190.576 27.3174 208.071 27.3174C225.567 27.3173 241.482 22.4616 253.343 14.5251C257.348 11.8453 261.936 10 266.754 10H395Z" fill="#FCFAF9"/>
<path d="M395 10V9V10ZM405 20H406H405ZM395 434V435V434ZM20 434L20 435H20V434ZM10 424H9H10ZM20 10V9V10ZM208.071 27.3174V28.3174V27.3174ZM162.799 14.5251L162.243 15.3562L162.799 14.5251ZM395 10V11C399.971 11 404 15.0294 404 20H405H406C406 13.9249 401.075 9 395 9V10ZM405 20H404V424H405H406V20H405ZM405 424H404C404 428.971 399.971 433 395 433V434V435C401.075 435 406 430.075 406 424H405ZM395 434V433H20V434V435H395V434ZM20 434L20 433C15.0294 433 11 428.971 11 424H10H9C9 430.075 13.9249 435 20 435L20 434ZM10 424H11V20H10H9V424H10ZM10 20H11C11 15.0294 15.0294 11 20 11V10V9C13.9249 9 9 13.9249 9 20H10ZM20 10V11H149.387V10V9H20V10ZM162.799 14.5251L162.243 15.3562C174.284 23.4136 190.398 28.3174 208.071 28.3174V27.3174V26.3174C190.754 26.3174 175.035 21.5098 163.355 13.694L162.799 14.5251ZM208.071 27.3174V28.3174C225.745 28.3173 241.858 23.4135 253.899 15.3562L253.343 14.5251L252.787 13.694C241.106 21.5098 225.389 26.3173 208.071 26.3174V27.3174ZM266.754 10V11H395V10V9H266.754V10ZM253.343 14.5251L253.899 15.3562C257.796 12.7488 262.192 11 266.754 11V10V9C261.679 9 256.9 10.9418 252.787 13.694L253.343 14.5251ZM149.387 10V11C153.95 11 158.346 12.7488 162.243 15.3562L162.799 14.5251L163.355 13.694C159.242 10.9418 154.462 9 149.387 9V10Z" fill="#CCCCCC" fill-opacity="0.5" mask="url(#path-3-inside-2_10431_12637)"/>
</svg>
