<svg width="40" height="40" viewBox="0 0 40 40" fill="none" xmlns="http://www.w3.org/2000/svg">
<path d="M11.9393 25.9391C11.3536 26.5249 11.3536 27.4746 11.9393 28.0604C12.5251 28.6462 13.4749 28.6462 14.0607 28.0604L11.9393 25.9391ZM28.6421 12.8576C28.6421 12.0292 27.9706 11.3576 27.1421 11.3576L13.6421 11.3576C12.8137 11.3576 12.1421 12.0292 12.1421 12.8576C12.1421 13.686 12.8137 14.3576 13.6421 14.3576H25.6421V26.3576C25.6421 27.186 26.3137 27.8576 27.1421 27.8576C27.9706 27.8576 28.6421 27.186 28.6421 26.3576L28.6421 12.8576ZM13 26.9998L14.0607 28.0604L28.2028 13.9183L27.1421 12.8576L26.0815 11.797L11.9393 25.9391L13 26.9998Z" fill="#99B0DB"/>
</svg>
