<svg width="18" height="21" viewBox="0 0 18 21" fill="none" xmlns="http://www.w3.org/2000/svg">
<path fill-rule="evenodd" clip-rule="evenodd" d="M14.6667 20.1429H3.33336C2.43964 20.1429 1.71431 19.4175 1.71431 18.5238V4.76191H0.904785V3.14287H5.76193V1.92858C5.76193 1.2591 6.30674 0.714294 6.97621 0.714294H11.0238C11.6917 0.714294 12.2381 1.25748 12.2381 1.92858V3.14287H17.0953V4.76191H16.2857V18.5238C16.2857 19.4175 15.5604 20.1429 14.6667 20.1429ZM14.6667 4.76191H3.33336V18.1191C3.33336 18.3425 3.51469 18.5238 3.73812 18.5238H14.2619C14.4854 18.5238 14.6667 18.3425 14.6667 18.1191V4.76191ZM7.38097 8.00001C7.38097 7.55315 7.01831 7.19048 6.57145 7.19048C6.12459 7.19048 5.76193 7.55315 5.76193 8.00001V15.2857C5.76193 15.7326 6.12459 16.0952 6.57145 16.0952C7.01831 16.0952 7.38097 15.7326 7.38097 15.2857V8.00001ZM12.2381 8.00001C12.2381 7.55315 11.8755 7.19048 11.4286 7.19048C10.9817 7.19048 10.6191 7.55315 10.6191 8.00001V15.2857C10.6191 15.7326 10.9817 16.0952 11.4286 16.0952C11.8755 16.0952 12.2381 15.7326 12.2381 15.2857V8.00001ZM10.6191 2.33334H7.38097V3.14287H10.6191V2.33334Z" fill="#0039A6"/>
</svg>
