<svg width="56" height="40" viewBox="0 0 56 40" fill="none" xmlns="http://www.w3.org/2000/svg">
<path d="M49.8127 19.0121C48.1688 18.1151 46.2528 17.7212 44.3188 17.0484C44.2583 16.303 44.1918 15.4 44.1072 14.4969C43.4907 7.92116 38.6677 2.2848 32.1523 0.539343C25.7215 -1.18793 18.6622 1.35146 14.8424 6.73934C12.8177 9.59995 11.7902 12.7757 11.7841 16.2727C11.7841 17.0242 11.6089 17.509 10.7446 17.4969C10.5149 17.4969 10.2852 17.5818 10.0495 17.6181C4.12645 18.6303 0.0890828 23.7151 0.530292 29.606C0.965457 35.3818 5.75831 39.9151 11.7116 39.9515C22.5968 40.0181 33.488 40.0121 44.3792 39.9515C49.4924 39.9212 53.8742 36.4181 55.1253 31.5999C56.4067 26.6545 54.3155 21.4666 49.8127 19.0121ZM36.8001 20.7212C36.3286 21.1939 35.5611 21.1939 35.0896 20.7212L29.4627 15.0787V31.8969C29.4627 32.5636 28.9188 33.109 28.2539 33.109C27.5891 33.109 27.0451 32.5636 27.0451 31.8969V15.0787L21.4182 20.7212C20.9468 21.1939 20.1792 21.1939 19.7078 20.7212C19.2363 20.2484 19.2363 19.4787 19.7078 19.006L27.4017 11.2909C27.8731 10.8181 28.6407 10.8181 29.1122 11.2909L36.8061 19.006C37.2775 19.4787 37.2775 20.2484 36.8061 20.7212H36.8001Z" fill="#CCD7ED"/>
</svg>
