<svg width="90" height="90" viewBox="0 0 90 90" fill="none" xmlns="http://www.w3.org/2000/svg">
<path d="M59.013 21.253C59.013 20.7836 58.6324 20.403 58.163 20.403C57.6935 20.403 57.313 20.7836 57.313 21.253H59.013ZM35.7027 47.0375L36.3014 46.4342L36.3007 46.4335L35.7027 47.0375ZM32.6999 18.938C32.6999 18.4685 32.3194 18.088 31.8499 18.088C31.3805 18.088 30.9999 18.4685 30.9999 18.938H32.6999ZM31.6517 34.2686C32.1211 34.2659 32.4994 33.8831 32.4967 33.4137C32.4939 32.9442 32.1111 32.5659 31.6417 32.5687L31.6517 34.2686ZM26.7801 28.7413L27.617 28.5927L27.6169 28.5919L26.7801 28.7413ZM31.6467 24.914C32.1161 24.914 32.4967 24.5334 32.4967 24.064C32.4967 23.5945 32.1161 23.214 31.6467 23.214V24.914ZM58.3713 32.5687C57.9018 32.5659 57.5191 32.9442 57.5163 33.4137C57.5136 33.8831 57.8919 34.2659 58.3613 34.2686L58.3713 32.5687ZM58.3663 23.214C57.8969 23.214 57.5163 23.5945 57.5163 24.064C57.5163 24.5334 57.8969 24.914 58.3663 24.914V23.214ZM38.2096 49.0099C38.2096 48.5405 37.8291 48.1599 37.3596 48.1599C36.8902 48.1599 36.5096 48.5405 36.5096 49.0099H38.2096ZM36.5096 54.6558C36.5096 55.1253 36.8902 55.5058 37.3596 55.5058C37.8291 55.5058 38.2096 55.1253 38.2096 54.6558H36.5096ZM53.5016 49.0099C53.5016 48.5405 53.1211 48.1599 52.6516 48.1599C52.1822 48.1599 51.8016 48.5405 51.8016 49.0099H53.5016ZM51.8016 54.6558C51.8016 55.1253 52.1822 55.5058 52.6516 55.5058C53.1211 55.5058 53.5016 55.1253 53.5016 54.6558H51.8016ZM78.0068 85.8972C78.0068 86.3667 78.3874 86.7472 78.8568 86.7472C79.3263 86.7472 79.7068 86.3667 79.7068 85.8972H78.0068ZM57.3746 54.7504L57.2939 55.5965L57.2942 55.5966L57.3746 54.7504ZM52.842 53.274L52.3737 53.9833C52.3819 53.9887 52.3902 53.994 52.3986 53.9992L52.842 53.274ZM53.2387 52.5173C52.8469 52.2587 52.3197 52.3666 52.0611 52.7584C51.8024 53.1502 51.9104 53.6774 52.3021 53.9361L53.2387 52.5173ZM37.6388 53.9735C38.0382 53.7267 38.1619 53.2029 37.9152 52.8036C37.6684 52.4042 37.1447 52.2805 36.7453 52.5272L37.6388 53.9735ZM32.576 54.774L32.6582 55.6201L32.6615 55.6197L32.576 54.774ZM10.2915 85.9091C10.2915 86.3785 10.672 86.7591 11.1415 86.7591C11.6109 86.7591 11.9915 86.3785 11.9915 85.9091H10.2915ZM53.3305 55.1146C53.5838 54.7193 53.4688 54.1936 53.0736 53.9403C52.6784 53.6869 52.1526 53.8019 51.8993 54.1971L53.3305 55.1146ZM38.0985 54.1971C37.8452 53.8019 37.3194 53.6869 36.9242 53.9403C36.529 54.1936 36.414 54.7193 36.6673 55.1146L38.0985 54.1971ZM30.31 18.0878C29.8406 18.0878 29.46 18.4683 29.46 18.9378C29.46 19.4072 29.8406 19.7878 30.31 19.7878L30.31 18.0878ZM49.814 13.84C50.2146 13.5953 50.341 13.0721 50.0962 12.6715C49.8514 12.271 49.3283 12.1446 48.9277 12.3894L49.814 13.84ZM59.6042 21.579C60.0714 21.6253 60.4876 21.2841 60.5338 20.8169C60.5801 20.3498 60.2389 19.9336 59.7717 19.8873L59.6042 21.579ZM44.4637 15.0768C44.0534 14.8486 43.5359 14.9961 43.3077 15.4064C43.0794 15.8166 43.227 16.3342 43.6372 16.5624L44.4637 15.0768ZM35.8945 24.9047C35.452 25.0616 35.2205 25.5474 35.3773 25.9899C35.5342 26.4323 36.02 26.6639 36.4625 26.507L35.8945 24.9047ZM41.8571 26.5022C42.2968 26.6664 42.7865 26.443 42.9507 26.0032C43.1149 25.5634 42.8915 25.0738 42.4517 24.9096L41.8571 26.5022ZM47.5592 24.9047C47.1167 25.0616 46.8852 25.5474 47.042 25.9899C47.1989 26.4323 47.6847 26.6639 48.1272 26.507L47.5592 24.9047ZM53.5217 26.5022C53.9615 26.6664 54.4512 26.443 54.6154 26.0032C54.7796 25.5634 54.5562 25.0738 54.1164 24.9096L53.5217 26.5022ZM27.0167 25.2019C27.208 25.6306 27.7107 25.823 28.1393 25.6316C28.568 25.4403 28.7604 24.9376 28.569 24.509L27.0167 25.2019ZM61.4309 24.5042C61.2369 24.9317 61.4263 25.4355 61.8538 25.6295C62.2813 25.8235 62.785 25.6341 62.979 25.2066L61.4309 24.5042ZM43.2201 66.4854C43.2954 66.0221 42.9808 65.5854 42.5174 65.5101C42.0541 65.4348 41.6174 65.7494 41.5421 66.2127L43.2201 66.4854ZM38.417 85.4418C38.3417 85.9052 38.6563 86.3418 39.1196 86.4171C39.583 86.4925 40.0197 86.1779 40.095 85.7145L38.417 85.4418ZM49.9033 85.7145C49.9786 86.1779 50.4153 86.4925 50.8787 86.4171C51.342 86.3418 51.6566 85.9052 51.5813 85.4418L49.9033 85.7145ZM48.4562 66.2127C48.3809 65.7494 47.9442 65.4348 47.4808 65.5101C47.0175 65.5854 46.7029 66.0221 46.7782 66.4854L48.4562 66.2127ZM36.0947 64.6128L35.3192 64.9608C35.4252 65.197 35.6331 65.3721 35.884 65.4363C36.1348 65.5005 36.4012 65.4468 36.6077 65.2906L36.0947 64.6128ZM32.4927 54.5086C32.3005 54.0803 31.7975 53.8889 31.3692 54.081C30.9409 54.2732 30.7495 54.7762 30.9416 55.2045L32.4927 54.5086ZM53.9025 64.6128L53.3895 65.2905C53.596 65.4468 53.8624 65.5005 54.1133 65.4363C54.3641 65.3721 54.5721 65.197 54.6781 64.9608L53.9025 64.6128ZM59.0556 55.2045C59.2478 54.7762 59.0564 54.2732 58.6281 54.081C58.1998 53.8889 57.6968 54.0803 57.5046 54.5086L59.0556 55.2045ZM30.1804 56.2293C30.1558 55.7605 29.7558 55.4004 29.287 55.425C28.8182 55.4497 28.4581 55.8496 28.4827 56.3184L30.1804 56.2293ZM30.0214 85.6227C30.046 86.0915 30.446 86.4516 30.9148 86.427C31.3836 86.4023 31.7437 86.0023 31.7191 85.5335L30.0214 85.6227ZM61.5156 56.3184C61.5403 55.8496 61.1802 55.4497 60.7114 55.425C60.2426 55.4004 59.8426 55.7605 59.818 56.2293L61.5156 56.3184ZM58.2793 85.5335C58.2547 86.0023 58.6147 86.4023 59.0835 86.427C59.5523 86.4516 59.9523 86.0915 59.9769 85.6227L58.2793 85.5335ZM5.72729 85.0471C5.25785 85.0471 4.87729 85.4277 4.87729 85.8971C4.87729 86.3666 5.25785 86.7471 5.72729 86.7471V85.0471ZM84.2728 86.7471C84.7422 86.7471 85.1228 86.3666 85.1228 85.8971C85.1228 85.4277 84.7422 85.0471 84.2728 85.0471V86.7471ZM50.6367 63.2173C50.8901 62.8222 50.7753 62.2964 50.3802 62.0429C49.9851 61.7894 49.4593 61.9043 49.2058 62.2994L50.6367 63.2173ZM46.8677 67.5184V68.3684C47.1572 68.3684 47.4268 68.221 47.5831 67.9773L46.8677 67.5184ZM43.1342 67.5184L42.4188 67.9773C42.5751 68.221 42.8447 68.3684 43.1342 68.3684V67.5184ZM40.7961 62.2994C40.5427 61.9043 40.0169 61.7894 39.6217 62.0429C39.2266 62.2964 39.1118 62.8222 39.3652 63.2173L40.7961 62.2994ZM58.163 21.253H57.313V37.8245H58.163H59.013V21.253H58.163ZM58.163 37.8245H57.313C57.313 41.0572 56.0209 44.1473 53.7122 46.4335L54.3102 47.0375L54.9083 47.6414C57.5378 45.0377 59.013 41.5134 59.013 37.8245H58.163ZM54.3102 47.0375L53.7122 46.4335C48.9021 51.1966 41.0987 51.1956 36.3014 46.4342L35.7027 47.0375L35.1039 47.6408C40.5647 53.0608 49.4365 53.0598 54.9083 47.6414L54.3102 47.0375ZM35.7027 47.0375L36.3007 46.4335C33.9923 44.1476 32.6999 41.0458 32.6999 37.8245H31.8499H30.9999C30.9999 41.5011 32.4748 45.0374 35.1046 47.6414L35.7027 47.0375ZM31.8499 37.8245H32.6999V18.938H31.8499H30.9999V37.8245H31.8499ZM31.6467 33.4187C31.6417 32.5687 31.6422 32.5687 31.6426 32.5687C31.6428 32.5687 31.6432 32.5687 31.6435 32.5687C31.644 32.5687 31.6445 32.5687 31.6449 32.5687C31.6457 32.5687 31.6463 32.5687 31.6466 32.5687C31.6474 32.5687 31.6472 32.5687 31.6461 32.5686C31.6439 32.5686 31.6381 32.5685 31.6291 32.5682C31.6109 32.5676 31.5795 32.5662 31.5365 32.563C31.4503 32.5564 31.3191 32.5424 31.156 32.5127C30.8279 32.4529 30.3836 32.3319 29.9204 32.0896C29.0275 31.6226 27.9857 30.6687 27.617 28.5927L26.7801 28.7413L25.9432 28.89C26.4094 31.5149 27.801 32.8996 29.1326 33.5961C29.7817 33.9355 30.3974 34.1024 30.8513 34.1851C31.0793 34.2267 31.2696 34.2475 31.4072 34.258C31.4761 34.2633 31.5321 34.266 31.5734 34.2673C31.594 34.268 31.611 34.2683 31.6241 34.2685C31.6307 34.2686 31.6363 34.2686 31.6409 34.2686C31.6432 34.2687 31.6452 34.2687 31.647 34.2687C31.6479 34.2687 31.6488 34.2687 31.6495 34.2686C31.6499 34.2686 31.6505 34.2686 31.6506 34.2686C31.6512 34.2686 31.6517 34.2686 31.6467 33.4187ZM26.7801 28.7413L27.6169 28.5919C27.4255 27.5198 27.507 26.8111 27.6876 26.3435C27.8611 25.8944 28.1509 25.6009 28.528 25.3929C29.3609 24.9336 30.5485 24.914 31.6467 24.914V24.064V23.214C30.6575 23.214 28.9943 23.1944 27.707 23.9043C27.024 24.281 26.4364 24.8646 26.1018 25.731C25.7744 26.5788 25.7172 27.6241 25.9433 28.8907L26.7801 28.7413ZM58.3663 33.4187C58.3613 34.2686 58.3618 34.2686 58.3623 34.2686C58.3625 34.2686 58.3631 34.2687 58.3634 34.2687C58.3642 34.2687 58.3651 34.2687 58.366 34.2687C58.3678 34.2687 58.3698 34.2687 58.3721 34.2687C58.3767 34.2686 58.3823 34.2686 58.3889 34.2685C58.402 34.2683 58.419 34.268 58.4396 34.2673C58.4809 34.266 58.5369 34.2633 58.6058 34.258C58.7434 34.2475 58.9337 34.2267 59.1616 34.1851C59.6156 34.1024 60.2313 33.9355 60.8804 33.5961C62.212 32.8996 63.6036 31.5149 64.0698 28.89L63.2329 28.7413L62.396 28.5927C62.0273 30.6687 60.9855 31.6226 60.0926 32.0896C59.6294 32.3319 59.185 32.4529 58.8569 32.5127C58.6939 32.5424 58.5627 32.5564 58.4765 32.563C58.4335 32.5662 58.4021 32.5676 58.3839 32.5682C58.3749 32.5685 58.3691 32.5686 58.3669 32.5687C58.3658 32.5687 58.3656 32.5687 58.3663 32.5687C58.3667 32.5687 58.3673 32.5687 58.3681 32.5687C58.3685 32.5687 58.369 32.5687 58.3695 32.5687C58.3698 32.5687 58.3702 32.5687 58.3704 32.5687C58.3708 32.5687 58.3713 32.5687 58.3663 33.4187ZM63.2329 28.7413L64.0698 28.89C64.2957 27.6184 64.2387 26.5704 63.9114 25.7215C63.5767 24.8535 62.9886 24.27 62.3044 23.8946C61.0167 23.188 59.3514 23.214 58.3663 23.214V24.064V24.914C59.4686 24.914 60.6541 24.9282 61.4866 25.385C61.8625 25.5912 62.1518 25.8833 62.3252 26.333C62.506 26.8019 62.5876 27.5138 62.396 28.5927L63.2329 28.7413ZM37.3596 49.0099H36.5096V54.6558H37.3596H38.2096V49.0099H37.3596ZM52.6516 49.0099H51.8016V54.6558H52.6516H53.5016V49.0099H52.6516ZM78.8568 85.8972H79.7068V78.1843H78.8568H78.0068V85.8972H78.8568ZM78.8568 78.1843H79.7068C79.7068 65.4982 69.9393 55.0903 57.455 53.9042L57.3746 54.7504L57.2942 55.5966C68.9282 56.7019 78.0068 66.3971 78.0068 78.1843H78.8568ZM57.3746 54.7504L57.4553 53.9042C55.9616 53.7618 54.5371 53.314 53.2854 52.5487L52.842 53.274L52.3986 53.9992C53.8903 54.9111 55.5671 55.4319 57.2939 55.5965L57.3746 54.7504ZM52.842 53.274L53.3103 52.5646L53.2387 52.5173L52.7704 53.2267L52.3021 53.9361L52.3737 53.9833L52.842 53.274ZM37.1921 53.2504L36.7453 52.5272C35.4712 53.3144 34.011 53.7745 32.4904 53.9284L32.576 54.774L32.6615 55.6197C34.4091 55.4429 36.1218 54.9107 37.6388 53.9735L37.1921 53.2504ZM32.576 54.774L32.4938 53.928C20.0345 55.1385 10.2915 65.534 10.2915 78.1962H11.1415H11.9915C11.9915 66.4323 21.0468 56.7482 32.6582 55.62L32.576 54.774ZM11.1415 78.1962H10.2915V85.9091H11.1415H11.9915V78.1962H11.1415ZM52.6149 54.6558L51.8993 54.1971L48.0227 60.2446L48.7383 60.7033L49.4539 61.162L53.3305 55.1146L52.6149 54.6558ZM48.7383 60.7033V59.8533H41.2595V60.7033V61.5533H48.7383V60.7033ZM41.2595 60.7033L41.9751 60.2446L38.0985 54.1971L37.3829 54.6558L36.6673 55.1146L40.5439 61.162L41.2595 60.7033ZM30.31 18.9378C30.31 19.7878 30.3103 19.7878 30.3106 19.7878C30.3108 19.7878 30.3112 19.7878 30.3115 19.7878C30.3121 19.7878 30.3129 19.7878 30.3138 19.7878C30.3156 19.7878 30.3181 19.7878 30.3211 19.7877C30.327 19.7877 30.3353 19.7877 30.3459 19.7876C30.367 19.7873 30.3972 19.787 30.4361 19.7862C30.514 19.7846 30.627 19.7816 30.7727 19.7757C31.0642 19.7638 31.4868 19.7403 32.022 19.6936C33.0919 19.6002 34.6134 19.414 36.4362 19.0428C40.0788 18.3009 44.9432 16.8161 49.814 13.84L49.3709 13.1147L48.9277 12.3894C44.2681 15.2364 39.6021 16.6631 36.0969 17.377C34.3458 17.7336 32.889 17.9114 31.8742 18C31.3669 18.0443 30.9705 18.0662 30.7036 18.0771C30.5701 18.0825 30.469 18.0852 30.4026 18.0865C30.3694 18.0872 30.3449 18.0875 30.3294 18.0876C30.3216 18.0877 30.3161 18.0877 30.3129 18.0878C30.3113 18.0878 30.3102 18.0878 30.3097 18.0878C30.3095 18.0878 30.3094 18.0878 30.3094 18.0878C30.3095 18.0878 30.3096 18.0878 30.3096 18.0878C30.3098 18.0878 30.31 18.0878 30.31 18.9378ZM59.688 20.7332L59.7717 19.8873C56.7416 19.5872 50.6986 18.5454 44.4637 15.0768L44.0504 15.8196L43.6372 16.5624C50.1413 20.1807 56.4318 21.2649 59.6042 21.579L59.688 20.7332ZM36.1785 25.7059C36.4625 26.507 36.4622 26.5071 36.462 26.5072C36.462 26.5072 36.4618 26.5073 36.4616 26.5073C36.4614 26.5074 36.4612 26.5075 36.4611 26.5075C36.4608 26.5076 36.4607 26.5076 36.4608 26.5076C36.461 26.5075 36.4619 26.5072 36.4635 26.5067C36.4667 26.5056 36.4728 26.5035 36.4816 26.5006C36.4991 26.4948 36.5276 26.4855 36.5663 26.4736C36.6436 26.4497 36.7612 26.4154 36.913 26.3767C37.2172 26.2991 37.6545 26.205 38.1764 26.1423C39.2299 26.0157 40.5744 26.0233 41.8571 26.5022L42.1544 25.7059L42.4517 24.9096C40.8239 24.3018 39.1805 24.3094 37.9736 24.4545C37.3653 24.5276 36.8544 24.6372 36.4929 24.7294C36.3118 24.7756 36.1672 24.8177 36.0655 24.849C36.0146 24.8647 35.9744 24.8777 35.9457 24.8873C35.9313 24.892 35.9198 24.896 35.9112 24.8989C35.9069 24.9004 35.9034 24.9016 35.9006 24.9026C35.8992 24.9031 35.898 24.9035 35.897 24.9038C35.8965 24.904 35.896 24.9042 35.8956 24.9043C35.8954 24.9044 35.8951 24.9045 35.895 24.9045C35.8947 24.9046 35.8945 24.9047 36.1785 25.7059ZM47.8432 25.7059C48.1272 26.507 48.1269 26.5071 48.1267 26.5072C48.1267 26.5072 48.1264 26.5073 48.1263 26.5073C48.1261 26.5074 48.1259 26.5075 48.1258 26.5075C48.1255 26.5076 48.1254 26.5076 48.1255 26.5076C48.1257 26.5075 48.1266 26.5072 48.1282 26.5067C48.1314 26.5056 48.1374 26.5035 48.1462 26.5006C48.1638 26.4948 48.1923 26.4855 48.231 26.4736C48.3083 26.4497 48.4259 26.4154 48.5777 26.3767C48.8819 26.2991 49.3192 26.205 49.8411 26.1423C50.8946 26.0157 52.2391 26.0233 53.5217 26.5022L53.8191 25.7059L54.1164 24.9096C52.4886 24.3018 50.8451 24.3094 49.6383 24.4545C49.03 24.5276 48.5191 24.6372 48.1576 24.7294C47.9764 24.7756 47.8318 24.8177 47.7302 24.849C47.6793 24.8647 47.6391 24.8777 47.6104 24.8873C47.596 24.892 47.5845 24.896 47.5759 24.8989C47.5716 24.9004 47.5681 24.9016 47.5653 24.9026C47.5639 24.9031 47.5627 24.9035 47.5617 24.9038C47.5611 24.904 47.5607 24.9042 47.5603 24.9043C47.5601 24.9044 47.5598 24.9045 47.5597 24.9045C47.5594 24.9046 47.5592 24.9047 47.8432 25.7059ZM27.7929 24.8554L28.569 24.509C27.8875 22.9823 27.4978 21.2928 27.4978 19.5167H26.6478H25.7978C25.7978 21.5438 26.243 23.4686 27.0167 25.2019L27.7929 24.8554ZM26.6478 19.5167H27.4978C27.4978 11.4779 34.0872 4.94088 42.2257 4.94088V4.09088V3.24088C33.1641 3.24088 25.7978 10.5233 25.7978 19.5167H26.6478ZM42.2257 4.09088V4.94088H47.7722V4.09088V3.24088H42.2257V4.09088ZM47.7722 4.09088V4.94088C55.9106 4.94088 62.5 11.4779 62.5 19.5167H63.35H64.2C64.2 10.5233 56.8338 3.24088 47.7722 3.24088V4.09088ZM63.35 19.5167H62.5C62.5 21.2963 62.1207 22.9838 61.4309 24.5042L62.205 24.8554L62.979 25.2066C63.7682 23.4671 64.2 21.5403 64.2 19.5167H63.35ZM42.3811 66.3491L41.5421 66.2127L38.417 85.4418L39.256 85.5782L40.095 85.7145L43.2201 66.4854L42.3811 66.3491ZM50.7423 85.5782L51.5813 85.4418L48.4562 66.2127L47.6172 66.3491L46.7782 66.4854L49.9033 85.7145L50.7423 85.5782ZM41.2595 60.7033L40.7465 60.0256L35.5817 63.9351L36.0947 64.6128L36.6077 65.2906L41.7725 61.381L41.2595 60.7033ZM36.0947 64.6128L36.8702 64.2649L32.4927 54.5086L31.7171 54.8566L30.9416 55.2045L35.3192 64.9608L36.0947 64.6128ZM48.7383 60.7033L48.2253 61.381L53.3895 65.2905L53.9025 64.6128L54.4156 63.9351L49.2514 60.0256L48.7383 60.7033ZM53.9025 64.6128L54.6781 64.9608L59.0556 55.2045L58.2801 54.8566L57.5046 54.5086L53.127 64.2649L53.9025 64.6128ZM29.3316 56.2739L28.4827 56.3184L30.0214 85.6227L30.8703 85.5781L31.7191 85.5335L30.1804 56.2293L29.3316 56.2739ZM60.6668 56.2739L59.818 56.2293L58.2793 85.5335L59.1281 85.5781L59.9769 85.6227L61.5156 56.3184L60.6668 56.2739ZM49.9212 62.7584L49.2058 62.2994L46.1522 67.0594L46.8677 67.5184L47.5831 67.9773L50.6367 63.2173L49.9212 62.7584ZM46.8677 67.5184V66.6684H43.1342V67.5184V68.3684H46.8677V67.5184ZM43.1342 67.5184L43.8497 67.0594L40.7961 62.2994L40.0807 62.7584L39.3652 63.2173L42.4188 67.9773L43.1342 67.5184ZM5.72729 85.8971V86.7471H84.2728V85.8971V85.0471H5.72729V85.8971Z" fill="#0039A6"/>
</svg>
