<svg width="90" height="90" viewBox="0 0 90 90" fill="none" xmlns="http://www.w3.org/2000/svg">
<path d="M44.9941 31.5187V22.5352M44.9941 67.4648V58.4813M76.5852 53.9V49.5573C76.5852 47.04 74.5225 44.9999 71.9774 44.9999H63.4856M76.5853 67.7869V72.1295C76.5853 74.6468 74.5227 76.6869 71.9776 76.6869H54.3306M13.4156 67.4648V49.5693C13.4156 47.052 15.4782 45.0119 18.0234 45.0119H26.6237M6.50339 67.4648H20.3267C21.659 67.4648 22.7391 68.533 22.7391 69.8508V83.523C22.7391 84.8408 21.659 85.9091 20.3267 85.9091H6.50339C5.17103 85.9091 4.09094 84.8408 4.09094 83.523V69.8508C4.09094 68.533 5.17103 67.4648 6.50339 67.4648ZM38.0819 67.4648H51.9052C53.2376 67.4648 54.3176 68.533 54.3176 69.8508V83.523C54.3176 84.8408 53.2376 85.9091 51.9052 85.9091H38.0819C36.7495 85.9091 35.6695 84.8408 35.6695 83.523V69.8508C35.6695 68.533 36.7495 67.4648 38.0819 67.4648ZM20.64 4.09088H69.3593C70.6916 4.09088 71.7717 5.15916 71.7717 6.47695V20.1491C71.7717 21.4669 70.6916 22.5352 69.3593 22.5352H20.64C19.3076 22.5352 18.2275 21.4669 18.2275 20.1491V6.47695C18.2275 5.15916 19.3076 4.09088 20.64 4.09088ZM69.6734 53.9H83.4967C84.829 53.9 85.9091 54.9683 85.9091 56.2861V65.4008C85.9091 66.7186 84.829 67.7869 83.4967 67.7869H69.6734C68.341 67.7869 67.2609 66.7186 67.2609 65.4008V56.2861C67.2609 54.9683 68.341 53.9 69.6734 53.9ZM42.3398 32.3538L27.8289 42.5184C26.092 43.7353 26.092 46.2765 27.8289 47.4815L42.3398 57.6461C43.932 58.7675 46.067 58.7675 47.6713 57.6461L62.1821 47.4815C63.9191 46.2646 63.9191 43.7234 62.1821 42.5184L47.6713 32.3538C46.0791 31.2324 43.944 31.2324 42.3398 32.3538Z" stroke="#0039A6" stroke-width="1.7" stroke-linecap="round" stroke-linejoin="round"/>
</svg>
