<svg width="208" height="263" viewBox="0 0 208 263" fill="none" xmlns="http://www.w3.org/2000/svg">
<path d="M75.4795 179.947L29.9609 263L42.0605 191.482L0 165.528L48.3984 168.412L33.9941 100.932L75.4795 179.947ZM154.415 153.417L208 150.533L160.754 177.063L176.887 254.349L129.063 171.296L166.516 85.3594L154.415 153.417ZM90.46 88.8203L157.873 82.4756L96.7979 118.812L114.083 220.32L54.1611 104.393L108.897 0L90.46 88.8203ZM26.4961 138.988C31.5875 138.988 35.7148 143.12 35.7148 148.217C35.7146 153.313 31.5874 157.444 26.4961 157.444C21.4049 157.444 17.2776 153.313 17.2773 148.217C17.2773 143.12 21.4047 138.988 26.4961 138.988ZM176.312 122.826C181.404 122.826 185.531 126.958 185.531 132.055C185.531 137.151 181.404 141.282 176.312 141.282C171.221 141.282 167.094 137.151 167.094 132.055C167.094 126.958 171.221 122.826 176.312 122.826ZM115.23 50.1836C121.595 50.1836 126.754 55.3481 126.754 61.7188C126.754 68.0894 121.595 73.2539 115.23 73.2539C108.866 73.2539 103.707 68.0893 103.707 61.7188C103.707 55.3481 108.866 50.1837 115.23 50.1836Z" fill="url(#paint0_radial_11164_69643)" fill-opacity="0.3"/>
<defs>
<radialGradient id="paint0_radial_11164_69643" cx="0" cy="0" r="1" gradientUnits="userSpaceOnUse" gradientTransform="translate(198.601 -190.062) rotate(111.962) scale(639.396 504.419)">
<stop offset="0.308102" stop-color="#7BB9FE"/>
<stop offset="0.614637" stop-color="#3185FF"/>
</radialGradient>
</defs>
</svg>
