<svg width="110" height="110" viewBox="0 0 110 110" fill="none" xmlns="http://www.w3.org/2000/svg">
<path d="M52.111 105H26.3083C24.3713 105 22.7921 103.42 22.7921 101.483V83.3657C22.7921 81.4287 24.3713 79.8496 26.3083 79.8496H52.111C54.0481 79.8496 55.6272 81.4287 55.6272 83.3657V101.483C55.6272 103.42 54.0481 105 52.111 105ZM26.3083 81.9446C25.5293 81.9446 24.8976 82.5762 24.8976 83.3552V101.473C24.8976 102.252 25.5293 102.884 26.3083 102.884H52.111C52.8901 102.884 53.5217 102.252 53.5217 101.473V83.3552C53.5217 82.5762 52.8901 81.9446 52.111 81.9446H26.3083Z" fill="#CCD7ED"/>
<path d="M49.7943 81.9559C49.2153 81.9559 48.7415 81.4822 48.7415 80.9032V67.1754C48.7415 64.9857 47.9099 62.9118 46.3939 61.3327L32.4451 46.7732C30.9397 45.2046 28.4342 45.1415 26.8656 46.6469C25.318 48.1207 25.2127 50.5315 26.6234 52.1316C27.0024 52.5738 26.9603 53.2371 26.5287 53.616C26.0971 53.995 25.4338 53.9635 25.0443 53.5213C22.8862 51.0684 23.0546 47.3733 25.4233 45.1205C27.834 42.8255 31.6766 42.9202 33.9716 45.3204L47.9204 59.8799C49.8154 61.8486 50.847 64.4488 50.847 67.1754V80.9032C50.847 81.4822 50.3733 81.9559 49.7943 81.9559Z" fill="#CCD7ED"/>
<path d="M28.1918 81.9548C27.6759 81.9548 27.2233 81.5759 27.1496 81.06L26.8759 79.2177C26.2232 74.8488 24.5177 70.6484 21.949 67.0585L10.4215 50.9831C8.84236 48.7829 8.00018 46.172 8.00018 43.456V28.5176C8.00018 25.4331 10.5057 22.9275 13.5902 22.9275C16.6748 22.9275 19.1803 25.4331 19.1803 28.5176V42.6664C19.1803 43.3191 19.4119 43.9403 19.8435 44.4351L34.6977 61.3316C35.0767 61.7738 35.0346 62.4369 34.603 62.8159C34.1714 63.1949 33.5081 63.1634 33.1186 62.7212L18.2644 45.8246C17.4959 44.9509 17.0748 43.835 17.0748 42.6664V28.5176C17.0748 26.5911 15.5062 25.033 13.5902 25.033C11.6743 25.033 10.1057 26.6016 10.1057 28.5176V43.456C10.1057 45.7299 10.8111 47.9092 12.127 49.7515L23.6545 65.8267C26.4232 69.6798 28.255 74.2066 28.9498 78.9019L29.2235 80.7442C29.3077 81.3232 28.9077 81.8495 28.3392 81.9443C28.2865 81.9443 28.2339 81.9548 28.1813 81.9548H28.1918Z" fill="#CCD7ED"/>
<path d="M19.8018 47.0039C19.686 47.0039 19.5702 46.9829 19.4544 46.9408C18.9069 46.7407 18.6227 46.1406 18.8122 45.5932L24.0233 30.939C24.6655 29.1283 23.718 27.1281 21.9073 26.4859C20.6756 26.0438 19.307 26.3281 18.349 27.2335C17.9279 27.6335 17.2647 27.6124 16.8647 27.1808C16.4646 26.7597 16.4857 26.0859 16.9173 25.6964C18.4543 24.2541 20.6334 23.8014 22.6126 24.5068C25.5182 25.5384 27.0446 28.7388 26.0129 31.6444L20.8019 46.2986C20.644 46.7302 20.244 47.0039 19.8123 47.0039H19.8018Z" fill="#CCD7ED"/>
<path d="M54.5724 89.9246H23.8324C23.2534 89.9246 22.7797 89.4509 22.7797 88.8719C22.7797 88.2929 23.2534 87.8192 23.8324 87.8192H54.5724C55.1514 87.8192 55.6252 88.2929 55.6252 88.8719C55.6252 89.4509 55.1514 89.9246 54.5724 89.9246Z" fill="#CCD7ED"/>
<path d="M85.3137 94.2196C84.7347 94.2196 84.2609 93.7458 84.2609 93.1668V83.3657C84.2609 82.5867 83.6293 81.9551 82.8503 81.9551H57.0476C56.2685 81.9551 55.6369 82.5867 55.6369 83.3657C55.6369 83.9447 55.1631 84.4185 54.5841 84.4185C54.0051 84.4185 53.5314 83.9447 53.5314 83.3657C53.5314 81.4287 55.1105 79.8496 57.0476 79.8496H82.8503C84.7873 79.8496 86.3664 81.4287 86.3664 83.3657V93.1668C86.3664 93.7458 85.8927 94.2196 85.3137 94.2196Z" fill="#CCD7ED"/>
<path d="M82.8503 105H57.0476C55.1105 105 53.5314 103.421 53.5314 101.484C53.5314 100.905 54.0051 100.431 54.5841 100.431C55.1631 100.431 55.6369 100.905 55.6369 101.484C55.6369 102.263 56.2685 102.895 57.0476 102.895H82.8503C83.6293 102.895 84.2609 102.263 84.2609 101.484V99.7468C84.2609 99.1678 84.7347 98.6941 85.3137 98.6941C85.8927 98.6941 86.3664 99.1678 86.3664 99.7468V101.484C86.3664 103.421 84.7873 105 82.8503 105Z" fill="#CCD7ED"/>
<path d="M59.3623 81.9559C58.7833 81.9559 58.3096 81.4822 58.3096 80.9032V67.1754C58.3096 64.4488 59.3518 61.8486 61.2362 59.8799L75.185 45.3204C77.4905 42.9202 81.3225 42.8255 83.7333 45.1205C86.1019 47.3733 86.2704 51.0684 84.1122 53.5213C83.7227 53.9635 83.0595 53.995 82.6279 53.616C82.1857 53.2371 82.1436 52.5633 82.5331 52.1316C83.9438 50.5315 83.8385 48.1207 82.291 46.6469C80.7119 45.152 78.2064 45.2152 76.7115 46.7838L62.7627 61.3431C61.2467 62.9223 60.4151 64.9962 60.4151 67.1859V80.9137C60.4151 81.4927 59.9413 81.9665 59.3623 81.9665V81.9559Z" fill="#CCD7ED"/>
<path d="M80.9663 81.9548C80.9663 81.9548 80.8611 81.9548 80.8084 81.9443C80.2294 81.8601 79.8399 81.3232 79.9241 80.7442L80.1978 78.9019C80.9032 74.2066 82.7349 69.6798 85.4931 65.8267L97.0206 49.7515C98.3471 47.9092 99.0419 45.7299 99.0419 43.456V28.5176C99.0419 26.5911 97.4734 25.033 95.5574 25.033C93.6414 25.033 92.0727 26.6016 92.0727 28.5176V42.6664C92.0727 43.8244 91.6517 44.9509 90.8832 45.8246L76.0289 62.7212C75.6394 63.1634 74.9762 63.1949 74.5446 62.8159C74.1024 62.4369 74.0603 61.7633 74.4498 61.3316L89.3041 44.4351C89.7357 43.9508 89.9672 43.3191 89.9672 42.6664V28.5176C89.9672 25.4331 92.4728 22.9275 95.5574 22.9275C98.6419 22.9275 101.147 25.4331 101.147 28.5176V43.456C101.147 46.172 100.316 48.7723 98.7261 50.9831L87.1986 67.0585C84.6299 70.6378 82.9244 74.8488 82.2717 79.2177L81.998 81.06C81.9243 81.5864 81.4716 81.9548 80.9558 81.9548H80.9663Z" fill="#CCD7ED"/>
<path d="M89.3564 47.0038C88.9248 47.0038 88.5142 46.7302 88.3668 46.2986L83.1557 31.6444C82.124 28.7388 83.6505 25.5384 86.5561 24.5067C88.5352 23.8014 90.725 24.2646 92.2514 25.6963C92.6725 26.0964 92.6936 26.7596 92.3041 27.1807C91.904 27.6018 91.2408 27.6229 90.8197 27.2334C89.8617 26.3386 88.4931 26.0543 87.2614 26.4859C85.4507 27.1281 84.5032 29.1283 85.1454 30.939L90.3565 45.5932C90.546 46.1406 90.2617 46.7407 89.7143 46.9407C89.5985 46.9828 89.4827 47.0038 89.3669 47.0038H89.3564Z" fill="#CCD7ED"/>
<path d="M85.3138 89.9246H54.5737C53.9947 89.9246 53.521 89.4509 53.521 88.8719C53.521 88.2929 53.9947 87.8192 54.5737 87.8192H85.3138C85.8928 87.8192 86.3666 88.2929 86.3666 88.8719C86.3666 89.4509 85.8928 89.9246 85.3138 89.9246Z" fill="#CCD7ED"/>
<path d="M54.5731 18.812C50.7622 18.812 47.6671 15.7169 47.6671 11.9059C47.6671 8.095 50.7622 5 54.5731 5C58.384 5 61.4791 8.095 61.4791 11.9059C61.4791 15.7169 58.384 18.812 54.5731 18.812ZM54.5731 7.09495C51.9202 7.09495 49.7726 9.253 49.7726 11.8954C49.7726 14.5378 51.9307 16.696 54.5731 16.696C57.2155 16.696 59.3736 14.5378 59.3736 11.8954C59.3736 9.253 57.2155 7.09495 54.5731 7.09495Z" fill="#CCD7ED"/>
<path d="M44.2454 40.5614H32.402C31.2545 40.5614 30.3176 39.6245 30.3176 38.477V30.5604C30.3176 25.5177 34.4233 21.4121 39.466 21.4121C41.7294 21.4121 43.898 22.2438 45.5824 23.7597C46.014 24.1492 46.0456 24.8125 45.6561 25.2441C45.2666 25.6757 44.6033 25.7073 44.1717 25.3177C42.8768 24.1492 41.203 23.5071 39.466 23.5071C35.5813 23.5071 32.4231 26.6652 32.4231 30.5498V38.4665L44.2454 38.4454C44.8244 38.4454 45.2981 38.9191 45.2981 39.4982C45.2981 40.0772 44.8244 40.5509 44.2454 40.5509V40.5614Z" fill="#CCD7ED"/>
<path d="M39.4659 23.5168C36.3498 23.5168 33.8232 20.9902 33.8232 17.8741C33.8232 14.758 36.3498 12.2314 39.4659 12.2314C42.582 12.2314 45.1086 14.758 45.1086 17.8741C45.1086 20.9902 42.582 23.5168 39.4659 23.5168ZM39.4659 14.3369C37.5184 14.3369 35.9287 15.9266 35.9287 17.8741C35.9287 19.8217 37.5184 21.4113 39.4659 21.4113C41.4135 21.4113 43.0031 19.8217 43.0031 17.8741C43.0031 15.9266 41.4135 14.3369 39.4659 14.3369Z" fill="#CCD7ED"/>
<path d="M76.7546 40.5611H64.9113C64.3322 40.5611 63.8585 40.0874 63.8585 39.5084C63.8585 38.9294 64.3322 38.4557 64.9113 38.4557H76.7546L76.7336 30.5601C76.7336 26.6755 73.5754 23.5173 69.6907 23.5173C67.9432 23.5173 66.2798 24.1595 64.985 25.328C64.5533 25.7175 63.8901 25.6755 63.5006 25.2544C63.1111 24.8227 63.1427 24.1595 63.5743 23.77C65.2587 22.254 67.4273 21.4224 69.6907 21.4224C74.7334 21.4224 78.8391 25.528 78.8391 30.5706V38.4873C78.8391 39.6348 77.9021 40.5717 76.7546 40.5717V40.5611Z" fill="#CCD7ED"/>
<path d="M69.6911 23.5168C66.575 23.5168 64.0483 20.9902 64.0483 17.8741C64.0483 14.758 66.575 12.2314 69.6911 12.2314C72.8072 12.2314 75.3338 14.758 75.3338 17.8741C75.3338 20.9902 72.8072 23.5168 69.6911 23.5168ZM69.6911 14.3369C67.7435 14.3369 66.1538 15.9266 66.1538 17.8741C66.1538 19.8217 67.7435 21.4113 69.6911 21.4113C71.6387 21.4113 73.2283 19.8217 73.2283 17.8741C73.2283 15.9266 71.6387 14.3369 69.6911 14.3369Z" fill="#CCD7ED"/>
<path d="M64.9108 40.5625H58.1417C57.5627 40.5625 57.0889 40.0887 57.0889 39.5097C57.0889 38.9307 57.5627 38.457 58.1417 38.457H63.858V28.098C63.858 22.9817 59.6997 18.8234 54.5834 18.8234C49.4671 18.8234 45.3087 22.9817 45.3087 28.098V38.457H51.0251C51.6041 38.457 52.0779 38.9307 52.0779 39.5097C52.0779 40.0887 51.6041 40.5625 51.0251 40.5625H44.256C43.677 40.5625 43.2032 40.0887 43.2032 39.5097V28.098C43.2032 21.8237 48.309 16.718 54.5834 16.718C60.8577 16.718 65.9635 21.8237 65.9635 28.098V39.5097C65.9635 40.0887 65.4898 40.5625 64.9108 40.5625Z" fill="#CCD7ED"/>
</svg>
