<svg width="110" height="110" viewBox="0 0 110 110" fill="none" xmlns="http://www.w3.org/2000/svg">
<path d="M25.3794 93.6746C24.8048 93.6746 24.3348 93.2046 24.3348 92.6301V9.04456C24.3348 8.47005 24.8048 8 25.3794 8H83.8537C84.4282 8 84.8982 8.47005 84.8982 9.04456V91.9929C84.8982 92.5674 84.4282 93.0374 83.8537 93.0374C83.2792 93.0374 82.8091 92.5674 82.8091 91.9929V10.0891H26.4239V92.6301C26.4239 93.2046 25.9539 93.6746 25.3794 93.6746Z" fill="#CCD7ED"/>
<path d="M11.5816 88.7856C11.0071 88.7856 10.537 88.3156 10.537 87.7411V33.0898C10.537 32.5153 11.0071 32.0452 11.5816 32.0452H19.3427C19.9172 32.0452 20.3872 32.5153 20.3872 33.0898C20.3872 33.6643 19.9172 34.1343 19.3427 34.1343H12.6261V87.7411C12.6261 88.3156 12.1561 88.7856 11.5816 88.7856Z" fill="#CCD7ED"/>
<path d="M97.6418 88.7548C97.0673 88.7548 96.5972 88.2847 96.5972 87.7102V27.575H89.8807C89.3062 27.575 88.8362 27.105 88.8362 26.5305C88.8362 25.956 89.3062 25.4859 89.8807 25.4859H97.6418C98.2163 25.4859 98.6864 25.956 98.6864 26.5305V87.7102C98.6864 88.2847 98.2163 88.7548 97.6418 88.7548Z" fill="#CCD7ED"/>
<path d="M103.188 101.99H6.04456C5.47005 101.99 5 101.52 5 100.945C5 100.371 5.47005 99.9007 6.04456 99.9007H103.188C103.763 99.9007 104.233 100.371 104.233 100.945C104.233 101.52 103.763 101.99 103.188 101.99Z" fill="#CCD7ED"/>
<path d="M8.84365 101.99C8.53028 101.99 8.21691 101.844 8.008 101.582C6.68141 99.838 5.97112 97.7489 5.97112 95.5344C5.97112 90.0296 10.4523 85.538 15.9675 85.538C20.3756 85.538 24.324 88.4941 25.5566 92.7246C25.7133 93.2782 25.3999 93.8632 24.8463 94.0198C24.2927 94.187 23.7077 93.8632 23.551 93.3095C22.5691 89.967 19.4564 87.6271 15.9675 87.6271C11.6117 87.6271 8.06023 91.1682 8.06023 95.5344C8.06023 97.2789 8.61385 98.9293 9.66885 100.308C10.0136 100.768 9.92999 101.426 9.47038 101.77C9.28236 101.917 9.06301 101.979 8.84365 101.979V101.99Z" fill="#CCD7ED"/>
<path d="M37.2453 101.655C36.6708 101.655 36.2008 101.185 36.2008 100.611C36.2008 96.4427 32.806 93.0479 28.6382 93.0479C26.5073 93.0479 24.46 93.9567 23.0289 95.534C22.6424 95.9622 21.9843 95.9936 21.5561 95.6071C21.1278 95.2206 21.0965 94.5625 21.483 94.1343C23.3109 92.1183 25.9223 90.9588 28.6382 90.9588C33.9654 90.9588 38.2899 95.2937 38.2899 100.611C38.2899 101.185 37.8199 101.655 37.2453 101.655Z" fill="#CCD7ED"/>
<path d="M100.43 101.99C100.211 101.99 99.9913 101.916 99.8032 101.781C99.3436 101.436 99.2601 100.778 99.6048 100.318C100.66 98.9394 101.213 97.2786 101.213 95.5342C101.213 91.1784 97.6723 87.6269 93.3061 87.6269C88.9398 87.6269 85.545 90.9799 85.4092 95.273C85.3883 95.8476 84.9183 96.3176 84.3333 96.2863C83.7588 96.2654 83.2992 95.7849 83.3201 95.2104C83.4977 89.7891 87.8848 85.5482 93.3061 85.5482C98.7273 85.5482 103.302 90.0294 103.302 95.5446C103.302 97.7487 102.603 99.8378 101.266 101.593C101.057 101.864 100.743 102 100.43 102V101.99Z" fill="#CCD7ED"/>
<path d="M73.5548 101.874C73.0639 101.874 72.6356 101.529 72.5312 101.039C72.4163 100.464 72.3536 99.8686 72.3536 99.2732C72.3536 94.4474 76.2811 90.5303 81.0965 90.5303C82.5903 90.5303 84.0735 90.9168 85.3792 91.6479C85.8806 91.93 86.0582 92.5672 85.7762 93.0685C85.4941 93.5699 84.857 93.7475 84.3556 93.4655C83.3632 92.9119 82.2456 92.6194 81.0965 92.6194C77.4302 92.6194 74.4427 95.6068 74.4427 99.2732C74.4427 99.7224 74.4845 100.182 74.5785 100.621C74.6934 101.185 74.3278 101.738 73.7638 101.853C73.6906 101.864 73.628 101.874 73.5548 101.874Z" fill="#CCD7ED"/>
<path d="M48.9551 25.5385C48.3806 25.5385 47.9106 25.0684 47.9106 24.4939V20.6082C47.9106 20.0336 48.3806 19.5636 48.9551 19.5636C49.5296 19.5636 49.9997 20.0336 49.9997 20.6082V24.4939C49.9997 25.0684 49.5296 25.5385 48.9551 25.5385Z" fill="#CCD7ED"/>
<path d="M60.2676 25.5385C59.6931 25.5385 59.2231 25.0684 59.2231 24.4939V20.6082C59.2231 20.0336 59.6931 19.5636 60.2676 19.5636C60.8421 19.5636 61.3122 20.0336 61.3122 20.6082V24.4939C61.3122 25.0684 60.8421 25.5385 60.2676 25.5385Z" fill="#CCD7ED"/>
<path d="M60.2676 35.576C59.6931 35.576 59.2231 35.106 59.2231 34.5314V30.6457C59.2231 30.0712 59.6931 29.6011 60.2676 29.6011C60.8421 29.6011 61.3122 30.0712 61.3122 30.6457V34.5314C61.3122 35.106 60.8421 35.576 60.2676 35.576Z" fill="#CCD7ED"/>
<path d="M60.2676 45.6135C59.6931 45.6135 59.2231 45.1435 59.2231 44.569V40.6832C59.2231 40.1087 59.6931 39.6387 60.2676 39.6387C60.8421 39.6387 61.3122 40.1087 61.3122 40.6832V44.569C61.3122 45.1435 60.8421 45.6135 60.2676 45.6135Z" fill="#CCD7ED"/>
<path d="M71.5905 25.5385C71.016 25.5385 70.5459 25.0684 70.5459 24.4939V20.6082C70.5459 20.0336 71.016 19.5636 71.5905 19.5636C72.165 19.5636 72.635 20.0336 72.635 20.6082V24.4939C72.635 25.0684 72.165 25.5385 71.5905 25.5385Z" fill="#CCD7ED"/>
<path d="M71.5905 35.576C71.016 35.576 70.5459 35.106 70.5459 34.5314V30.6457C70.5459 30.0712 71.016 29.6011 71.5905 29.6011C72.165 29.6011 72.635 30.0712 72.635 30.6457V34.5314C72.635 35.106 72.165 35.576 71.5905 35.576Z" fill="#CCD7ED"/>
<path d="M71.5905 45.6135C71.016 45.6135 70.5459 45.1435 70.5459 44.569V40.6832C70.5459 40.1087 71.016 39.6387 71.5905 39.6387C72.165 39.6387 72.635 40.1087 72.635 40.6832V44.569C72.635 45.1435 72.165 45.6135 71.5905 45.6135Z" fill="#CCD7ED"/>
<path d="M37.6323 25.5385C37.0578 25.5385 36.5877 25.0684 36.5877 24.4939V20.6082C36.5877 20.0336 37.0578 19.5636 37.6323 19.5636C38.2068 19.5636 38.6768 20.0336 38.6768 20.6082V24.4939C38.6768 25.0684 38.2068 25.5385 37.6323 25.5385Z" fill="#CCD7ED"/>
<path d="M37.6323 35.576C37.0578 35.576 36.5877 35.106 36.5877 34.5314V30.6457C36.5877 30.0712 37.0578 29.6011 37.6323 29.6011C38.2068 29.6011 38.6768 30.0712 38.6768 30.6457V34.5314C38.6768 35.106 38.2068 35.576 37.6323 35.576Z" fill="#CCD7ED"/>
<path d="M37.6323 45.6135C37.0578 45.6135 36.5877 45.1435 36.5877 44.569V40.6832C36.5877 40.1087 37.0578 39.6387 37.6323 39.6387C38.2068 39.6387 38.6768 40.1087 38.6768 40.6832V44.569C38.6768 45.1435 38.2068 45.6135 37.6323 45.6135Z" fill="#CCD7ED"/>
<path d="M48.9551 35.576C48.3806 35.576 47.9106 35.106 47.9106 34.5314V30.6457C47.9106 30.0712 48.3806 29.6011 48.9551 29.6011C49.5296 29.6011 49.9997 30.0712 49.9997 30.6457V34.5314C49.9997 35.106 49.5296 35.576 48.9551 35.576Z" fill="#CCD7ED"/>
<path d="M48.9551 45.7706C48.3806 45.7706 47.9106 45.3006 47.9106 44.7261V40.8403C47.9106 40.2658 48.3806 39.7958 48.9551 39.7958C49.5296 39.7958 49.9997 40.2658 49.9997 40.8403V44.7261C49.9997 45.3006 49.5296 45.7706 48.9551 45.7706Z" fill="#CCD7ED"/>
<path d="M60.2674 55.4856C59.6929 55.4856 59.2228 55.0155 59.2228 54.441V50.5552C59.2228 49.9807 59.6929 49.5107 60.2674 49.5107C60.8419 49.5107 61.3119 49.9807 61.3119 50.5552V54.441C61.3119 55.0155 60.8419 55.4856 60.2674 55.4856Z" fill="#CCD7ED"/>
<path d="M71.5905 55.4856C71.016 55.4856 70.5459 55.0155 70.5459 54.441V50.5552C70.5459 49.9807 71.016 49.5107 71.5905 49.5107C72.165 49.5107 72.635 49.9807 72.635 50.5552V54.441C72.635 55.0155 72.165 55.4856 71.5905 55.4856Z" fill="#CCD7ED"/>
<path d="M37.632 55.4856C37.0575 55.4856 36.5875 55.0155 36.5875 54.441V50.5552C36.5875 49.9807 37.0575 49.5107 37.632 49.5107C38.2065 49.5107 38.6766 49.9807 38.6766 50.5552V54.441C38.6766 55.0155 38.2065 55.4856 37.632 55.4856Z" fill="#CCD7ED"/>
<path d="M48.9551 55.6532C48.3806 55.6532 47.9106 55.1831 47.9106 54.6086V50.7228C47.9106 50.1483 48.3806 49.6783 48.9551 49.6783C49.5296 49.6783 49.9997 50.1483 49.9997 50.7228V54.6086C49.9997 55.1831 49.5296 55.6532 48.9551 55.6532Z" fill="#CCD7ED"/>
<path d="M60.2676 65.3561C59.6931 65.3561 59.2231 64.886 59.2231 64.3115V60.4258C59.2231 59.8513 59.6931 59.3812 60.2676 59.3812C60.8421 59.3812 61.3122 59.8513 61.3122 60.4258V64.3115C61.3122 64.886 60.8421 65.3561 60.2676 65.3561Z" fill="#CCD7ED"/>
<path d="M71.5905 65.3561C71.016 65.3561 70.5459 64.886 70.5459 64.3115V60.4258C70.5459 59.8513 71.016 59.3812 71.5905 59.3812C72.165 59.3812 72.635 59.8513 72.635 60.4258V64.3115C72.635 64.886 72.165 65.3561 71.5905 65.3561Z" fill="#CCD7ED"/>
<path d="M37.6323 65.3561C37.0578 65.3561 36.5877 64.886 36.5877 64.3115V60.4258C36.5877 59.8513 37.0578 59.3812 37.6323 59.3812C38.2068 59.3812 38.6768 59.8513 38.6768 60.4258V64.3115C38.6768 64.886 38.2068 65.3561 37.6323 65.3561Z" fill="#CCD7ED"/>
<path d="M48.9551 65.5234C48.3806 65.5234 47.9106 65.0533 47.9106 64.4788V60.5931C47.9106 60.0186 48.3806 59.5485 48.9551 59.5485C49.5296 59.5485 49.9997 60.0186 49.9997 60.5931V64.4788C49.9997 65.0533 49.5296 65.5234 48.9551 65.5234Z" fill="#CCD7ED"/>
<path d="M60.2676 75.2386C59.6931 75.2386 59.2231 74.7685 59.2231 74.194V70.3083C59.2231 69.7338 59.6931 69.2637 60.2676 69.2637C60.8421 69.2637 61.3122 69.7338 61.3122 70.3083V74.194C61.3122 74.7685 60.8421 75.2386 60.2676 75.2386Z" fill="#CCD7ED"/>
<path d="M71.5905 75.2386C71.016 75.2386 70.5459 74.7685 70.5459 74.194V70.3083C70.5459 69.7338 71.016 69.2637 71.5905 69.2637C72.165 69.2637 72.635 69.7338 72.635 70.3083V74.194C72.635 74.7685 72.165 75.2386 71.5905 75.2386Z" fill="#CCD7ED"/>
<path d="M37.6323 75.2386C37.0578 75.2386 36.5877 74.7685 36.5877 74.194V70.3083C36.5877 69.7338 37.0578 69.2637 37.6323 69.2637C38.2068 69.2637 38.6768 69.7338 38.6768 70.3083V74.194C38.6768 74.7685 38.2068 75.2386 37.6323 75.2386Z" fill="#CCD7ED"/>
<path d="M48.9551 75.3957C48.3806 75.3957 47.9106 74.9257 47.9106 74.3511V70.4654C47.9106 69.8909 48.3806 69.4208 48.9551 69.4208C49.5296 69.4208 49.9997 69.8909 49.9997 70.4654V74.3511C49.9997 74.9257 49.5296 75.3957 48.9551 75.3957Z" fill="#CCD7ED"/>
<path d="M71.5905 85.1088C71.016 85.1088 70.5459 84.6388 70.5459 84.0643V80.1785C70.5459 79.604 71.016 79.134 71.5905 79.134C72.165 79.134 72.635 79.604 72.635 80.1785V84.0643C72.635 84.6388 72.165 85.1088 71.5905 85.1088Z" fill="#CCD7ED"/>
<path d="M37.6323 85.1088C37.0578 85.1088 36.5877 84.6388 36.5877 84.0643V80.1785C36.5877 79.604 37.0578 79.134 37.6323 79.134C38.2068 79.134 38.6768 79.604 38.6768 80.1785V84.0643C38.6768 84.6388 38.2068 85.1088 37.6323 85.1088Z" fill="#CCD7ED"/>
<path d="M60.268 97.3524H48.945C48.3705 97.3524 47.9004 96.8824 47.9004 96.3078V83.0837C47.9004 82.5092 48.3705 82.0392 48.945 82.0392H60.268C60.8425 82.0392 61.3125 82.5092 61.3125 83.0837V96.3078C61.3125 96.8824 60.8425 97.3524 60.268 97.3524ZM49.9895 95.2633H59.2234V84.1283H49.9895V95.2633Z" fill="#CCD7ED"/>
<path d="M66.4 97.3505H42.8243C42.2498 97.3505 41.7798 96.8804 41.7798 96.3059C41.7798 95.7314 42.2498 95.2614 42.8243 95.2614H66.4C66.9745 95.2614 67.4446 95.7314 67.4446 96.3059C67.4446 96.8804 66.9745 97.3505 66.4 97.3505Z" fill="#CCD7ED"/>
</svg>
