<svg width="100" height="98" viewBox="0 0 100 98" fill="none" xmlns="http://www.w3.org/2000/svg">
<path d="M56.0389 43.4621L64.2764 30.1673H92.0918V0H50.1534V30.1673H56.0389V43.4621ZM52.3619 27.9588V2.20844H89.8833V27.9588H63.0507L58.2474 35.7105V27.9588H52.3619Z" fill="#CCD7ED"/>
<path d="M83.0383 11.0314H59.4963V13.2399H83.0383V11.0314Z" fill="#CCD7ED"/>
<path d="M83.0383 17.3591H59.4963V19.5676H83.0383V17.3591Z" fill="#CCD7ED"/>
<path d="M50.4845 69.5335C56.4473 69.5335 61.2948 64.686 61.2948 58.7232C61.2948 52.7604 56.4473 47.9128 50.4845 47.9128C44.5217 47.9128 39.6742 52.7604 39.6742 58.7232C39.6742 64.686 44.5217 69.5335 50.4845 69.5335ZM50.4845 50.1323C55.2216 50.1323 59.0864 53.9861 59.0864 58.7343C59.0864 63.4824 55.2327 67.3361 50.4845 67.3361C45.7364 67.3361 41.8826 63.4824 41.8826 58.7343C41.8826 53.9861 45.7364 50.1323 50.4845 50.1323Z" fill="#CCD7ED"/>
<path d="M62.2456 71.852H55.5761L50.4857 83.8659L45.3952 71.852H38.7257C34.5076 71.852 31.0735 75.2862 31.0735 79.5043V98H69.9089V79.5043C69.9089 75.2862 66.4748 71.852 62.2567 71.852H62.2456ZM67.6894 95.7916H33.2709V79.5043C33.2709 76.5008 35.7112 74.0604 38.7147 74.0604H43.9266L50.4746 89.5306L57.0337 74.0604H62.2456C65.2491 74.0604 67.6894 76.5008 67.6894 79.5043V95.7916Z" fill="#CCD7ED"/>
<path d="M19.4112 57.551C25.374 57.551 30.2215 52.7034 30.2215 46.7406C30.2215 40.7778 25.374 35.9303 19.4112 35.9303C13.4484 35.9303 8.60089 40.7778 8.60089 46.7406C8.60089 52.7034 13.4484 57.551 19.4112 57.551ZM19.4112 38.1498C24.1483 38.1498 28.0131 42.0035 28.0131 46.7516C28.0131 51.4998 24.1594 55.3535 19.4112 55.3535C14.6631 55.3535 10.8093 51.4998 10.8093 46.7516C10.8093 42.0035 14.6631 38.1498 19.4112 38.1498Z" fill="#CCD7ED"/>
<path d="M69.6542 46.7535C69.6542 52.7163 74.5017 57.5638 80.4645 57.5638C86.4273 57.5638 91.2748 52.7163 91.2748 46.7535C91.2748 40.7907 86.4273 35.9432 80.4645 35.9432C74.5017 35.9432 69.6542 40.7907 69.6542 46.7535ZM89.0553 46.7535C89.0553 51.4906 85.2016 55.3554 80.4535 55.3554C75.7053 55.3554 71.8516 51.5017 71.8516 46.7535C71.8516 42.0054 75.7053 38.1517 80.4535 38.1517C85.2016 38.1517 89.0553 42.0054 89.0553 46.7535Z" fill="#CCD7ED"/>
<path d="M2.19734 67.5347C2.19734 64.5312 4.63767 62.0909 7.64115 62.0909H12.8531L19.4121 77.561L25.9602 62.0909H31.1721C34.1756 62.0909 36.6159 64.5312 36.6159 67.5347V70.494H38.8243V67.5347C38.8243 63.3165 35.3902 59.8824 31.1721 59.8824H24.5026L19.4121 71.8963L14.3217 59.8824H7.65219C3.43407 59.8824 -6.10352e-05 63.3165 -6.10352e-05 67.5347V86.0304H26.4571V83.8219H2.19734V67.5347Z" fill="#CCD7ED"/>
<path d="M92.2362 59.8824H85.5668L80.4763 71.8963L75.3858 59.8824H68.7163C64.4982 59.8824 61.0641 63.3165 61.0641 67.5347V70.494H63.2725V67.5347C63.2725 64.5312 65.7129 62.0909 68.7163 62.0909H73.9283L80.4763 77.561L87.0354 62.0909H92.2473C95.2508 62.0909 97.6911 64.5312 97.6911 67.5347V83.8219H73.873V86.0304H99.8995V67.5347C99.8995 63.3165 96.4654 59.8824 92.2473 59.8824H92.2362Z" fill="#CCD7ED"/>
</svg>
