<svg width="110" height="110" viewBox="0 0 110 110" fill="none" xmlns="http://www.w3.org/2000/svg">
<path d="M95.3091 90.9508C94.8506 90.9508 94.4233 90.6382 94.2983 90.1797C93.9961 89.0544 86.9097 62.4413 85.5341 55.96C84.5441 51.323 84.3878 47.9886 84.3774 46.3735H67.2661C67.2661 47.999 67.0993 51.323 66.1093 55.96C65.7759 57.5439 65.0776 60.4198 63.9834 64.7442C63.8375 65.3069 63.2748 65.6403 62.7225 65.4944C62.1598 65.3485 61.8263 64.7859 61.9722 64.2336C63.0664 59.9301 63.7542 57.075 64.0877 55.5224C65.4216 49.2494 65.1819 45.4357 65.1819 45.394C65.161 45.1022 65.2652 44.8209 65.4632 44.6125C65.6612 44.4041 65.9322 44.279 66.224 44.279H85.4612C85.753 44.279 86.024 44.4041 86.222 44.6125C86.42 44.8209 86.5241 45.1126 86.5033 45.394C86.5033 45.4357 86.2532 49.239 87.5976 55.5224C88.9627 61.9516 96.2574 89.3566 96.3408 89.6379C96.4867 90.1902 96.1532 90.7633 95.6009 90.9091C95.5071 90.93 95.4238 90.9404 95.33 90.9404L95.3091 90.9508Z" fill="#CCD7ED"/>
<path d="M78.3227 90.9492C77.7495 90.9492 77.2806 90.4803 77.2806 89.9072V65.5345H16.7447V89.9072C16.7447 90.4803 16.2757 90.9492 15.7026 90.9492C15.1294 90.9492 14.6604 90.4803 14.6604 89.9072V64.4925C14.6604 63.9193 15.1294 63.4504 15.7026 63.4504H78.3227C78.8958 63.4504 79.3648 63.9193 79.3648 64.4925V89.9072C79.3648 90.4803 78.8958 90.9492 78.3227 90.9492Z" fill="#CCD7ED"/>
<path d="M48.3298 83.1775H44.0676C43.4945 83.1775 43.0255 82.7086 43.0255 82.1355C43.0255 81.5624 43.4945 81.0934 44.0676 81.0934H48.3298C48.903 81.0934 49.3719 81.5624 49.3719 82.1355C49.3719 82.7086 48.903 83.1775 48.3298 83.1775Z" fill="#CCD7ED"/>
<path d="M38.6902 83.1775H34.428C33.8549 83.1775 33.3859 82.7086 33.3859 82.1355C33.3859 81.5624 33.8549 81.0934 34.428 81.0934H38.6902C39.2634 81.0934 39.7323 81.5624 39.7323 82.1355C39.7323 82.7086 39.2634 83.1775 38.6902 83.1775Z" fill="#CCD7ED"/>
<path d="M29.0608 83.1775H24.7986C24.2255 83.1775 23.7565 82.7086 23.7565 82.1355C23.7565 81.5624 24.2255 81.0934 24.7986 81.0934H29.0608C29.634 81.0934 30.1029 81.5624 30.1029 82.1355C30.1029 82.7086 29.634 83.1775 29.0608 83.1775Z" fill="#CCD7ED"/>
<path d="M67.798 90.9506H59.4612C58.888 90.9506 58.4191 90.4817 58.4191 89.9086V80.3221C58.4191 79.749 58.888 79.2801 59.4612 79.2801H67.798C68.3712 79.2801 68.8401 79.749 68.8401 80.3221V89.9086C68.8401 90.4817 68.3712 90.9506 67.798 90.9506ZM60.5033 88.8666H66.7559V81.3641H60.5033V88.8666Z" fill="#CCD7ED"/>
<path d="M103.958 90.9498H7.04211C6.46895 90.9498 6 90.4809 6 89.9078C6 89.3347 6.46895 88.8658 7.04211 88.8658H103.958C104.531 88.8658 105 89.3347 105 89.9078C105 90.4809 104.531 90.9498 103.958 90.9498Z" fill="#CCD7ED"/>
<path d="M47.9143 65.5346H39.9526C39.6712 65.5346 39.4003 65.4199 39.2023 65.2115C39.0043 65.0031 38.9001 64.7322 38.9105 64.4404L40.0151 40.5575C40.036 40.0052 40.4945 39.5676 41.0572 39.5676H46.7992C47.3516 39.5676 47.8101 40.0052 47.8413 40.5575L48.9564 64.4404C48.9668 64.7218 48.8626 65.0031 48.6646 65.2115C48.4666 65.4199 48.1957 65.5346 47.9143 65.5346ZM41.0468 63.4505H46.8201L45.8092 41.6516H42.0577L41.0468 63.4505Z" fill="#CCD7ED"/>
<path d="M33.0748 65.5362H24.4983C24.2169 65.5362 23.946 65.4216 23.748 65.2132C23.55 65.0048 23.4458 64.7338 23.4562 64.4421L24.8734 33.8902C24.9047 33.3379 25.3528 32.9003 25.9155 32.9003H31.6575C32.2099 32.9003 32.6684 33.3379 32.6996 33.8902L34.1169 64.4421C34.1273 64.7234 34.0231 65.0048 33.8251 65.2132C33.6271 65.4216 33.3562 65.5362 33.0748 65.5362ZM25.5821 63.4521H31.9806L30.6571 34.9843H26.9055L25.5821 63.4521Z" fill="#CCD7ED"/>
<path d="M80.0835 40.4019C79.5103 40.4019 79.0414 39.9329 79.0414 39.3598C79.0414 31.5239 76.3215 29.3982 74.2789 28.4708C70.9963 26.9911 68.3598 27.4913 65.5669 28.0227C63.2326 28.4708 60.8149 28.9293 57.8866 28.3458C55.2501 27.8143 53.6973 26.6056 52.1967 25.4385C50.1854 23.8755 48.2888 22.3959 43.5055 22.2708C40.546 22.1979 38.9099 23.2399 37.1487 24.3444C33.0949 26.8765 29.7289 28.0019 20.1728 20.8745C19.7143 20.5306 19.6205 19.8742 19.9644 19.4157C20.3083 18.9572 20.9648 18.8634 21.4233 19.2073C30.5417 26.0116 32.9699 24.5007 36.0441 22.5834C37.9094 21.4164 40.0145 20.093 43.5577 20.1972C49.0287 20.3327 51.3943 22.177 53.4785 23.8026C54.9062 24.9175 56.1463 25.8762 58.3034 26.3138C60.8253 26.8244 62.9408 26.418 65.1814 25.9908C68.1722 25.4177 71.2568 24.8237 75.1439 26.5847C79.1768 28.4083 81.136 32.5868 81.136 39.3703C81.136 39.9434 80.6671 40.4123 80.0939 40.4123L80.0835 40.4019Z" fill="#CCD7ED"/>
</svg>
