<svg width="68" height="50" viewBox="0 0 68 50" fill="none" xmlns="http://www.w3.org/2000/svg">
<path d="M30.1316 24.4501H17.9752C17.9752 24.4501 17.9227 24.4277 17.9152 24.3977L16.154 18.4319H12.0469L13.6732 28.5573C13.7482 29.5466 14.5726 30.311 15.5619 30.311H23.9785" stroke="white" stroke-miterlimit="10" stroke-linecap="round"/>
<path d="M12.0449 18.4321L11.925 17.2629L6.57373 15.5841C6.29643 15.4941 6.10156 15.2393 6.10156 14.9395C6.10156 14.205 6.70114 13.6055 7.43562 13.6055H13.7462C14.743 13.6055 15.5899 14.34 15.7248 15.3367L16.152 18.4321H12.0449Z" stroke="white" stroke-miterlimit="10" stroke-linecap="round"/>
<path d="M37.7031 24.4501H49.8671C49.8671 24.4501 49.9195 24.4277 49.927 24.3977L51.6883 18.4319H55.7954L54.169 28.5573C54.0941 29.5466 53.2697 30.311 52.2804 30.311H49.0501H43.8638" stroke="white" stroke-miterlimit="10" stroke-linecap="round"/>
<path d="M55.7946 18.4321L55.9145 17.2629L61.2658 15.5841C61.5431 15.4941 61.7379 15.2393 61.7379 14.9395C61.7379 14.205 61.1383 13.6055 60.4039 13.6055H54.0933C53.0965 13.6055 52.2496 14.34 52.1147 15.3367L51.6875 18.4321H55.7946Z" stroke="white" stroke-miterlimit="10" stroke-linecap="round"/>
<path d="M33.8939 44.9184L31.0234 41.6357L33.8939 29.8015L31.8628 26.946H33.9464" stroke="white" stroke-linecap="round" stroke-linejoin="round"/>
<path d="M33.9431 44.9184L36.8136 41.6357L33.9431 29.8015L35.9742 26.946H33.8906" stroke="white" stroke-linecap="round" stroke-linejoin="round"/>
<path d="M40.0466 16.9027C39.9717 17.195 39.8893 18.1393 39.8218 18.3867C39.3871 19.8931 37.8882 21.2421 36.704 22.2165C35.8046 22.9584 35.3025 23.558 33.9235 23.4531C32.5369 23.558 32.0348 22.9509 31.1429 22.2165C29.9662 21.2496 28.4673 19.8931 28.0251 18.3867C27.9502 18.1393 27.8752 17.2025 27.8003 16.9027C25.7317 15.8235 25.5219 13.68 26.3838 12.7806C26.7585 12.3834 26.6461 12.4958 26.8334 12.3609C26.6761 10.5622 26.3763 8.76342 26.5411 7.11458C26.9459 3.07493 30.2211 1.96571 31.4727 2.19804C37.7458 -0.372646 41.1559 4.17665 41.3058 7.11458C41.3882 8.77092 41.1783 10.5622 41.0135 12.3609C41.1484 12.4658 41.0884 12.3834 41.4706 12.7806C42.3325 13.68 42.1227 15.8235 40.0541 16.9027H40.0466Z" stroke="white" stroke-miterlimit="10" stroke-linecap="round"/>
<path d="M27.0034 12.1878C26.3588 8.13311 30.6233 7.90077 31.9799 5.8772C31.9799 5.8772 33.1565 7.71341 38.8975 8.21555C39.5196 8.26801 41.2808 9.03248 40.7712 12.1878" stroke="white" stroke-miterlimit="10" stroke-linecap="round"/>
<path d="M24.0532 31.2175L20.0135 35.2572C19.9086 35.3621 19.7737 35.4296 19.6238 35.4595L12.1815 36.7786C11.8892 36.8311 11.6719 37.0859 11.6719 37.3857V40.9757H20.5007C21.3326 40.9757 22.142 40.6684 22.7641 40.1063L24.3155 38.7123" stroke="white" stroke-miterlimit="10" stroke-linecap="round"/>
<path d="M9.82094 40.7368C8.67425 40.5869 7.54255 40.3396 6.44082 39.9949L3.01573 38.9231C2.57354 38.7882 2.28125 38.376 2.28125 37.9188C2.28125 37.3342 2.75342 36.8621 3.33801 36.8621H9.34128C10.6304 36.8621 11.6796 37.9038 11.6796 39.1929V40.9842L9.82844 40.7443L9.82094 40.7368Z" stroke="white" stroke-miterlimit="10" stroke-linecap="round"/>
<path d="M43.7858 31.2175L47.8254 35.2572C47.9303 35.3621 48.0652 35.4296 48.2151 35.4595L55.6574 36.7786C55.9497 36.8311 56.167 37.0859 56.167 37.3857V40.9757H47.3383C46.5063 40.9757 45.6969 40.6684 45.0748 40.1063L43.5234 38.7123" stroke="white" stroke-miterlimit="10" stroke-linecap="round"/>
<path d="M58.0228 40.7368C59.1694 40.5869 60.3011 40.3396 61.4029 39.9949L64.828 38.9231C65.2702 38.7882 65.5624 38.376 65.5624 37.9188C65.5624 37.3342 65.0903 36.8621 64.5057 36.8621H58.5024C57.2133 36.8621 56.1641 37.9038 56.1641 39.1929V40.9842L58.0153 40.7443L58.0228 40.7368Z" stroke="white" stroke-miterlimit="10" stroke-linecap="round"/>
<path d="M43.9839 28.7217L43.7891 31.2174L45.1906 32.6264" stroke="white" stroke-linecap="round" stroke-linejoin="round"/>
<path d="M43.2422 48.5604L43.5645 37.738" stroke="white" stroke-miterlimit="10" stroke-linecap="round"/>
<path d="M24.2656 37.3784L24.6029 48.5606" stroke="white" stroke-miterlimit="10" stroke-linecap="round"/>
<path d="M23.8556 28.7217L24.0505 31.2174L22.4766 32.7988" stroke="white" stroke-linecap="round" stroke-linejoin="round"/>
<path d="M56.9464 10.1204C59.2726 10.1204 61.1584 8.23457 61.1584 5.90832C61.1584 3.58208 59.2726 1.69629 56.9464 1.69629C54.6202 1.69629 52.7344 3.58208 52.7344 5.90832C52.7344 8.23457 54.6202 10.1204 56.9464 10.1204Z" stroke="white" stroke-miterlimit="10" stroke-linecap="round"/>
<path d="M56.9453 3.95239V5.90852L58.2569 7.28755" stroke="white" stroke-miterlimit="10" stroke-linecap="round"/>
<path d="M14.7842 1.9353H12.843C12.3709 1.9353 11.9586 2.25758 11.8462 2.72225L11.6439 3.56915H8.15133C7.4768 3.56915 6.92969 4.11627 6.92969 4.79079V8.9054C6.92969 9.57992 7.4768 10.127 8.15133 10.127H14.6043C15.2788 10.127 15.8259 9.57992 15.8259 8.9054V2.96208C15.8259 2.39248 15.3687 1.9353 14.7991 1.9353H14.7842Z" stroke="white" stroke-miterlimit="10" stroke-linecap="round"/>
<path d="M5.68052 23.5208H2.62267C1.77827 23.5208 1.09375 24.2053 1.09375 25.0497V32.3345C1.09375 33.179 1.77827 33.8635 2.62267 33.8635H5.68052C6.52492 33.8635 7.20945 33.179 7.20945 32.3345V25.0497C7.20945 24.2053 6.52492 23.5208 5.68052 23.5208Z" stroke="white" stroke-miterlimit="10" stroke-linecap="round"/>
<path d="M1.09375 31.3601H7.20945" stroke="white" stroke-miterlimit="10" stroke-linecap="round"/>
<path d="M66.9004 24.4502H60.3125V32.9342H66.9004V24.4502Z" stroke="white" stroke-miterlimit="10" stroke-linecap="round"/>
<path d="M62.5781 26.7581H64.6467" stroke="white" stroke-miterlimit="10" stroke-linecap="round"/>
<path d="M62.5781 28.6919H64.6467" stroke="white" stroke-miterlimit="10" stroke-linecap="round"/>
<path d="M62.5781 30.6184H63.6124" stroke="white" stroke-miterlimit="10" stroke-linecap="round"/>
<path d="M31.8625 26.9459L30.0938 24.4502" stroke="white" stroke-linecap="round" stroke-linejoin="round"/>
<path d="M35.9297 26.9459L37.6984 24.4502" stroke="white" stroke-linecap="round" stroke-linejoin="round"/>
</svg>
