<svg width="40" height="62" viewBox="0 0 40 62" fill="none" xmlns="http://www.w3.org/2000/svg">
<path d="M28.3087 54.0083L27.4109 58.8663L27.0234 60.9572" stroke="white" stroke-linecap="round" stroke-linejoin="round"/>
<path d="M15.315 48.0615C15.9361 48.9532 16.9815 50.3368 17.9347 50.7795C18.4758 51.0317 23.6106 52.5752 26.4209 53.4238C28.813 54.1433 30.2274 54.2232 31.7217 53.8481C32.7486 53.596 34.2306 52.7535 34.3413 51.499C34.409 50.7426 34.3167 49.9371 34.329 48.904C34.8271 48.3936 35.1469 47.9569 35.1592 47.8094C35.1838 47.5634 34.2675 46.3827 34.0093 46.0322C35.2269 45.6448 36.0017 45.3619 35.7988 44.913C35.3929 43.9783 35.3806 43.5171 35.3314 42.9329C35.3314 42.6561 35.5343 42.3179 35.8541 41.7399C37.25 41.1557 37.8096 40.9958 38.3139 40.7252C39.8451 39.9012 38.9165 39.1264 37.8896 37.6567C36.3338 35.4429 35.4421 34.9386 35.4605 33.186C35.4728 32.0176 36.2784 30.757 36.2292 28.4633C36.2231 28.0512 36.1493 27.6638 36.0324 27.2703H1.58947C-0.058577 32.6572 1.36194 38.124 3.9324 41.7214C6.69965 45.5956 8.86425 46.4626 9.23321 50.4352C9.30086 51.1731 9.35005 51.9541 9.13482 53.2516C8.78431 55.3855 8.45224 57.2118 7.7758 60.9999" stroke="white" stroke-miterlimit="10" stroke-linecap="round"/>
<path d="M24.9688 27.2703L31.8746 13.6309L39.1063 17.2959L34.0576 27.2703" stroke="white" stroke-linecap="round" stroke-linejoin="round"/>
<path d="M34.9688 18.8762L37.6192 20.2229" stroke="white" stroke-linecap="round" stroke-linejoin="round"/>
<path d="M35.2266 21.4346L36.6409 22.1541" stroke="white" stroke-linecap="round" stroke-linejoin="round"/>
<path d="M34.25 23.3711L35.6644 24.0844" stroke="white" stroke-linecap="round" stroke-linejoin="round"/>
<path d="M32.0312 24.675L34.6878 26.0156" stroke="white" stroke-linecap="round" stroke-linejoin="round"/>
<path d="M3.79138 27.2701L2.5 23.4882L7.26581 23.0824L11.2814 20.4873L13.6059 27.2886" stroke="white" stroke-linecap="round" stroke-linejoin="round"/>
<path d="M2.5 23.4884L4.32638 14.4856L11.2814 20.4874" stroke="white" stroke-linecap="round" stroke-linejoin="round"/>
<path d="M7.64089 17.3452C7.64089 17.3452 6.8968 17.9725 5.66077 18.3968C4.42473 18.8211 3.45312 18.778 3.45312 18.778" stroke="white" stroke-linecap="round" stroke-linejoin="round"/>
<path d="M7.26562 23.0828L8.69844 27.2705" stroke="white" stroke-linecap="round" stroke-linejoin="round"/>
<path d="M21.9931 18.532C20.4865 18.7042 18.9675 18.7042 17.4609 18.5381" stroke="white" stroke-linecap="round" stroke-linejoin="round"/>
<path d="M15.5 13.4158V9.12346C15.5 7.088 16.281 5.12632 17.683 3.65045L18.9252 2.34064C19.3372 1.90403 20.0321 1.90403 20.4503 2.34064L21.6925 3.65045C23.0945 5.12632 23.8755 7.088 23.8755 9.12346V13.4158" stroke="white" stroke-linecap="round" stroke-linejoin="round"/>
<path d="M15.5 8.72998H23.8755" stroke="white" stroke-linecap="round" stroke-linejoin="round"/>
<path d="M16.3514 13.416H15.4658L13.6641 14.3077V20.494L17.4275 18.5323V14.4983C17.4275 13.9018 16.9417 13.416 16.3452 13.416H16.3514Z" stroke="white" stroke-linecap="round" stroke-linejoin="round"/>
<path d="M23.0371 13.416H23.9226L25.7244 14.3077V20.494L21.9609 18.5323V14.4983C21.9609 13.9018 22.4467 13.416 23.0432 13.416H23.0371Z" stroke="white" stroke-linecap="round" stroke-linejoin="round"/>
<path d="M18.0625 21.4038V27.2704" stroke="white" stroke-linecap="round" stroke-linejoin="round"/>
<path d="M21.3125 21.4038V27.2704" stroke="white" stroke-linecap="round" stroke-linejoin="round"/>
<path d="M8.51562 10.5064V6.87817" stroke="white" stroke-linecap="round" stroke-linejoin="round"/>
<path d="M10.3313 8.69238H6.70312" stroke="white" stroke-linecap="round" stroke-linejoin="round"/>
<path d="M29.2266 4.62818V1" stroke="white" stroke-linecap="round" stroke-linejoin="round"/>
<path d="M31.0422 2.81421H27.4141" stroke="white" stroke-linecap="round" stroke-linejoin="round"/>
<path d="M34.3516 11.294V7.66577" stroke="white" stroke-linecap="round" stroke-linejoin="round"/>
<path d="M36.1672 9.47998H32.5391" stroke="white" stroke-linecap="round" stroke-linejoin="round"/>
</svg>
