<svg width="60" height="62" viewBox="0 0 60 62" fill="none" xmlns="http://www.w3.org/2000/svg">
<path d="M12.1406 61.0001V51.0932C12.1406 46.6943 14.726 42.7001 18.7502 40.9091L22.8569 39.0731C22.8569 39.0731 25.135 42.9998 31.5872 42.9998C38.0394 42.9998 40.3176 39.0731 40.3176 39.0731C40.4974 38.7883 40.7148 38.4211 40.9471 37.6792" stroke="white" stroke-linecap="round" stroke-linejoin="round"/>
<path d="M38.5213 30.2528C38.4389 30.59 38.3415 31.6542 38.2665 31.9314C37.7719 33.6326 36.0708 35.1688 34.7369 36.2629C33.7177 37.1022 33.1482 37.7842 31.582 37.6643C30.0158 37.7842 29.4462 37.0947 28.4271 36.2629C27.1007 35.1688 25.3995 33.6326 24.8975 31.9314C24.815 31.6542 24.7326 30.59 24.6427 30.2528C22.3046 29.0313 22.0648 26.6033 23.039 25.5916C23.4661 25.142 23.3312 25.2694 23.5486 25.1195C23.3687 23.0812 23.0315 21.0503 23.2188 19.1769C23.676 14.6056 27.3854 13.3466 28.8018 13.6089C35.906 10.7013 39.7653 15.8421 39.9377 19.1769C40.0351 21.0578 39.7878 23.0812 39.6079 25.1195C39.7578 25.2394 39.6904 25.142 40.125 25.5916C41.1067 26.6108 40.8669 29.0313 38.5213 30.2528Z" stroke="white" stroke-linecap="round" stroke-linejoin="round"/>
<path d="M23.7538 24.9249C23.0268 20.3386 27.8529 20.0688 29.3816 17.7832C29.3816 17.7832 30.7156 19.859 37.2127 20.4285C37.9097 20.4885 39.9105 21.3578 39.3335 24.9249" stroke="white" stroke-linecap="round" stroke-linejoin="round"/>
<path d="M22.875 39.0725L26.4796 37.6861L26.6819 34.6511" stroke="white" stroke-linecap="round" stroke-linejoin="round"/>
<path d="M36.5078 34.6508L36.7101 37.6858H42.6903C42.6903 37.6858 48.7753 32.0654 50.1167 27.9213C51.608 23.3351 52.4773 14.9944 52.4773 14.9944H58.2925C58.2925 14.9944 59.7013 27.5166 57.5131 33.3619C54.1933 42.2271 48.7903 50.0357 48.7903 50.0357V60.9993" stroke="white" stroke-linecap="round" stroke-linejoin="round"/>
<path d="M57.6025 14.9951C57.6025 12.1325 57.4976 9.27731 57.2803 6.42214L56.973 2.36046C56.9056 1.48368 56.0963 0.861689 55.227 1.02655C54.6724 1.13147 54.2228 1.55113 54.0804 2.09818L52.3793 8.70777C51.9821 10.2515 52.4617 11.8927 53.6383 12.9793L53.4809 14.9876H57.595L57.6025 14.9951Z" stroke="white" stroke-linecap="round" stroke-linejoin="round"/>
<path d="M12.8678 21.5679V23.4264C12.8678 24.1458 12.2833 24.7303 11.5639 24.7303H9.22581C8.5064 24.7303 7.92188 24.1458 7.92188 23.4264V21.5679" stroke="white" stroke-linecap="round" stroke-linejoin="round"/>
<path d="M11.3341 25.8989H9.45312" stroke="white" stroke-linecap="round" stroke-linejoin="round"/>
<path d="M10.3906 5.82296V4.00195" stroke="white" stroke-linecap="round" stroke-linejoin="round"/>
<path d="M3.08664 13.1296H1.26562" stroke="white" stroke-linecap="round" stroke-linejoin="round"/>
<path d="M19.5319 13.1296H17.7109" stroke="white" stroke-linecap="round" stroke-linejoin="round"/>
<path d="M4.51599 8.78266L3.05469 7.69604" stroke="white" stroke-linecap="round" stroke-linejoin="round"/>
<path d="M17.7269 18.5618L16.2656 17.4827" stroke="white" stroke-linecap="round" stroke-linejoin="round"/>
<path d="M16.2656 8.78266L17.7269 7.69604" stroke="white" stroke-linecap="round" stroke-linejoin="round"/>
<path d="M3.05469 18.5618L4.51599 17.4827" stroke="white" stroke-linecap="round" stroke-linejoin="round"/>
<path d="M15.2435 15.5875C15.6107 14.8606 15.8205 14.0363 15.8205 13.1595C15.8205 10.1695 13.3925 7.74146 10.4024 7.74146C7.41239 7.74146 4.98438 10.1695 4.98438 13.1595C4.98438 14.0288 5.1942 14.8531 5.5614 15.5875C5.66632 15.7974 5.78622 16.0072 5.92111 16.202C7.22504 18.4727 7.16509 19.0122 7.24752 20.2113C7.33745 21.5152 8.36411 21.5976 8.70883 21.5976H12.111C12.4558 21.5976 13.4899 21.5077 13.5724 20.2113C13.6548 19.0122 13.5948 18.4727 14.8988 16.202C15.0337 16.0072 15.1461 15.8049 15.2585 15.5875H15.2435Z" stroke="white" stroke-linecap="round" stroke-linejoin="round"/>
</svg>
