<svg width="64" height="60" viewBox="0 0 64 60" fill="none" xmlns="http://www.w3.org/2000/svg">
<path d="M59.4598 32.6293C59.4598 33.3408 58.8831 33.91 58.1791 33.91C57.4751 33.91 56.8984 33.3333 56.8984 32.6293C56.8984 31.9253 57.4751 31.3486 58.1791 31.3486C58.8831 31.3486 59.4598 31.9253 59.4598 32.6293Z" stroke="white" stroke-miterlimit="10" stroke-linecap="round"/>
<path d="M7.46764 32.6293C7.46764 33.3408 6.89095 33.91 6.18695 33.91C5.48294 33.91 4.90625 33.3333 4.90625 32.6293C4.90625 31.9253 5.48294 31.3486 6.18695 31.3486C6.89095 31.3486 7.46764 31.9253 7.46764 32.6293Z" stroke="white" stroke-miterlimit="10" stroke-linecap="round"/>
<path d="M48.179 45.4507L40.5547 39.8411" stroke="white" stroke-linecap="round" stroke-linejoin="round"/>
<path d="M42.6601 49.2258L36.7734 44.9119" stroke="white" stroke-linecap="round" stroke-linejoin="round"/>
<path d="M48.179 45.4507L40.5547 39.8411" stroke="white" stroke-linecap="round" stroke-linejoin="round"/>
<path d="M37.5533 53.3005L32.9922 49.9827" stroke="white" stroke-linecap="round" stroke-linejoin="round"/>
<path d="M42.6601 49.2258L36.7734 44.9119" stroke="white" stroke-linecap="round" stroke-linejoin="round"/>
<path d="M37.5533 53.3005L32.9922 49.9827" stroke="white" stroke-linecap="round" stroke-linejoin="round"/>
<path d="M13.7946 45.0467C11.4879 43.384 9.51816 41.3019 7.99031 38.8978L7.76562 38.5383" stroke="white" stroke-linecap="round" stroke-linejoin="round"/>
<path d="M51.9603 40.3801L53.4283 41.4736C54.8288 42.5146 55.1209 44.4993 54.0724 45.8999C53.5481 46.5964 52.7992 47.0158 51.9903 47.1356C51.1889 47.2554 50.3426 47.0682 49.6461 46.5439L48.1782 45.443C49.5787 46.484 49.8708 48.4687 48.8223 49.8768C48.298 50.5733 47.5491 50.9927 46.7402 51.1125C45.9313 51.2323 45.0925 51.0451 44.3885 50.5209L42.6584 49.2252C44.059 50.2662 44.3436 52.2509 43.3025 53.6514C42.7858 54.3555 42.0218 54.7749 41.228 54.8947C40.4191 55.0145 39.5803 54.8198 38.8763 54.303L37.5431 53.3069C38.9437 54.348 39.2283 56.3402 38.1797 57.7407C37.663 58.4372 36.9215 58.5271 36.1052 58.5196C34.2403 58.4896 30.6528 56.0406 29.125 54.9396" stroke="white" stroke-linecap="round" stroke-linejoin="round"/>
<path d="M14.2188 21.6499L23.4982 22.5411H23.5132C23.8127 22.5262 24.1048 22.5337 24.4044 22.5411" stroke="white" stroke-linecap="round" stroke-linejoin="round"/>
<path d="M7.07019 19.1263L7.78169 17.0518L14.3949 19.3286L7.16006 40.314L0.546875 38.0297L6.3512 21.2084" stroke="white" stroke-linecap="round" stroke-linejoin="round"/>
<path d="M57.7589 20.601L63.4584 36.6959L56.8677 39.0326L49.4531 18.1071L56.0438 15.7778L56.7179 17.6577" stroke="white" stroke-linecap="round" stroke-linejoin="round"/>
<path d="M13.7182 48.9566C12.7146 48.2076 12.5049 46.7771 13.2539 45.7736L14.7143 43.8188C15.4633 42.8152 16.8937 42.6055 17.8973 43.3545C18.9009 44.1034 19.1106 45.5339 18.3617 46.5375L16.9012 48.4922C16.1523 49.4958 14.7218 49.7055 13.7182 48.9566Z" stroke="white" stroke-linecap="round" stroke-linejoin="round"/>
<path d="M24.976 56.7002C23.9724 55.9513 23.7627 54.5208 24.5117 53.5172L25.9721 51.5625C26.7211 50.5589 28.1516 50.3492 29.1551 51.0981C30.1587 51.8471 30.3684 53.2775 29.6195 54.2811L28.1591 56.2359C27.4101 57.2395 25.9796 57.4492 24.976 56.7002Z" stroke="white" stroke-linecap="round" stroke-linejoin="round"/>
<path d="M17.3667 51.6823C16.3631 50.9333 16.1534 49.5028 16.9023 48.4993L18.9919 45.6982C19.7408 44.6946 21.1713 44.4849 22.1749 45.2339C23.1785 45.9828 23.3882 47.4133 22.6392 48.4169L20.5497 51.2179C19.8007 52.2215 18.3702 52.4312 17.3667 51.6823Z" stroke="white" stroke-linecap="round" stroke-linejoin="round"/>
<path d="M21.0151 54.401C20.0115 53.6521 19.8018 52.2216 20.5507 51.218L22.6403 48.417C23.3893 47.4134 24.8197 47.2037 25.8233 47.9526C26.8269 48.7016 27.0366 50.132 26.2877 51.1356L24.1981 53.9367C23.4492 54.9403 22.0187 55.15 21.0151 54.401Z" stroke="white" stroke-linecap="round" stroke-linejoin="round"/>
<path d="M50.2733 20.3237C50.2733 20.3237 43.7874 22.7578 38.9717 21.14C34.156 19.5223 29.4751 18.8333 26.5692 20.9228C23.6633 23.0124 18.8251 26.9893 17.7316 28.4572C16.6382 29.9252 19.5665 33.0483 23.3562 32.2394C27.1459 31.4305 26.2396 28.8841 30.2839 27.6409C34.3282 26.3976 42.1323 33.0558 42.1323 33.0558L51.9659 40.3879C51.9659 40.3879 53.2017 38.4032 55.9952 37.16L50.2733 20.3312V20.3237Z" stroke="white" stroke-linecap="round" stroke-linejoin="round"/>
<path d="M32 10.4374V1.47998" stroke="white" stroke-linecap="round" stroke-linejoin="round"/>
<path d="M21.0686 13.1717L16.5 5.46509" stroke="white" stroke-linecap="round" stroke-linejoin="round"/>
<path d="M42.9375 13.1715L47.5061 5.46484" stroke="white" stroke-linecap="round" stroke-linejoin="round"/>
</svg>
