<svg width="58" height="58" viewBox="0 0 58 58" fill="none" xmlns="http://www.w3.org/2000/svg">
<path d="M1 56.8027V51.0311C1 49.502 1.90241 48.1232 3.28737 47.5028L9.84241 45.2781C10.5819 45.0274 11.1584 44.4385 11.4028 43.699L11.4906 43.4294C11.7788 42.5458 11.5219 41.587 10.8639 40.9227C10.8639 40.9227 10.8576 40.9164 10.8514 40.9102C10.2936 40.3462 9.79854 39.6946 9.598 39.0052C9.54787 38.8172 9.4852 38.0965 9.42253 37.8709C7.84331 37.05 7.68664 35.4143 8.34465 34.725C8.63292 34.4305 8.53892 34.5119 8.68932 34.4054C8.57025 33.0392 8.33212 31.6605 8.46372 30.4071C8.77079 27.3239 11.2712 26.4779 12.23 26.6534C17.0179 24.6981 19.6123 28.1574 19.7314 30.4071C19.8003 31.6667 19.6311 33.0392 19.512 34.4054C19.6123 34.4868 19.5622 34.4179 19.8567 34.725C20.5147 35.4143 20.358 37.0437 18.7663 37.8709C18.7162 38.0965 18.6535 38.8172 18.5908 39.0052C18.3903 39.6946 17.9015 40.3462 17.3437 40.9102C16.6983 41.5619 16.4476 42.5083 16.7171 43.3857L16.7985 43.6676C17.0304 44.4322 17.6132 45.0337 18.3715 45.2906L24.9014 47.5028C26.2989 48.1232 27.1888 49.5082 27.1888 51.0311V56.8027" stroke="white" stroke-linecap="round" stroke-linejoin="round"/>
<path d="M8.83104 34.2788C8.34223 31.1893 11.5884 31.0074 12.6224 29.4658C12.6224 29.4658 13.5248 30.8634 17.8991 31.2456C18.3691 31.2895 19.7164 31.8724 19.3279 34.2788" stroke="white" stroke-linecap="round" stroke-linejoin="round"/>
<path d="M22.9609 52.5413V55.3613" stroke="white" stroke-linecap="round" stroke-linejoin="round"/>
<path d="M5.73438 52.5413V55.3613" stroke="white" stroke-linecap="round" stroke-linejoin="round"/>
<path d="M18.7515 45.9604C18.7515 46.7751 16.6647 47.4395 14.0828 47.4395C11.5009 47.4395 9.41406 46.7751 9.41406 45.9604" stroke="white" stroke-linecap="round" stroke-linejoin="round"/>
<path d="M30.8047 56.4829V50.7113C30.8047 49.1822 31.7071 47.8035 33.0921 47.1831L39.6471 44.9585C40.3866 44.7078 40.9631 44.1187 41.2075 43.3793L41.2953 43.1097C41.5835 42.2261 41.3266 41.2673 40.6686 40.6093C40.6686 40.6093 40.6623 40.603 40.656 40.5967C40.0983 40.0327 39.6032 39.3811 39.4027 38.6917C39.3526 38.5037 39.2899 37.783 39.2272 37.5574C37.648 36.7365 37.4913 35.1009 38.1493 34.4115C38.4376 34.117 38.3436 34.1984 38.494 34.0919C38.3749 32.7258 38.1368 31.347 38.2684 30.0936C38.5755 27.0104 41.0759 26.1644 42.0347 26.3399C46.8225 24.3847 49.417 27.8439 49.5361 30.0936C49.605 31.3533 49.4358 32.7258 49.3167 34.0919C49.417 34.1734 49.3669 34.1044 49.6614 34.4115C50.3194 35.1009 50.1627 36.7302 48.571 37.5574C48.5208 37.783 48.4582 38.5037 48.3955 38.6917C48.195 39.3811 47.7062 40.0327 47.1484 40.5967C46.5029 41.2484 46.2523 42.1948 46.5217 43.0722L46.6095 43.3542C46.8413 44.1187 47.4242 44.7202 48.1824 44.9771L54.7124 47.1893C56.1099 47.8097 56.9998 49.1948 56.9998 50.7176V56.4892" stroke="white" stroke-linecap="round" stroke-linejoin="round"/>
<path d="M49.1522 33.9597C49.641 30.8702 46.3948 30.6883 45.3608 29.1467C45.3608 29.1467 44.4584 30.5443 40.0842 30.9265C39.6142 30.9704 38.2668 31.5533 38.6554 33.9597" stroke="white" stroke-linecap="round" stroke-linejoin="round"/>
<path d="M52.7656 52.2212L53.2607 55.0412" stroke="white" stroke-linecap="round" stroke-linejoin="round"/>
<path d="M35.5404 52.2212L35.0391 55.0412" stroke="white" stroke-linecap="round" stroke-linejoin="round"/>
<path d="M48.5562 45.6348C48.5562 46.4494 43.8875 51.1746 43.8875 51.1746C43.8875 51.1746 39.2188 46.4494 39.2188 45.6348" stroke="white" stroke-linecap="round" stroke-linejoin="round"/>
<path d="M42.4829 26.1649C42.4829 26.1649 40.1955 23.4766 36.9619 25.2062C33.7282 26.9358 34.0729 30.677 34.3925 32.3753C34.7121 34.0736 35.5017 37.6518 34.3925 39.018H35.9843C35.9843 39.018 36.3415 42.0261 34.8625 43.1792H36.1096C36.1096 43.1792 36.5357 43.9499 35.5331 44.6706H35.8401C37.4194 44.6706 38.7604 43.4235 38.7855 41.8443C38.7855 41.8255 38.7855 41.8005 38.7855 41.7817" stroke="white" stroke-linecap="round" stroke-linejoin="round"/>
<path d="M35.9453 14.6526H44.6749" stroke="white" stroke-linecap="round" stroke-linejoin="round"/>
<path d="M18.347 14.6526H14.2109" stroke="white" stroke-linecap="round" stroke-linejoin="round"/>
<path d="M36.6953 11.6252H45.4249" stroke="white" stroke-linecap="round" stroke-linejoin="round"/>
<path d="M21.0466 11.6252H13.5703" stroke="white" stroke-linecap="round" stroke-linejoin="round"/>
<path d="M35.9453 8.59863H44.6749" stroke="white" stroke-linecap="round" stroke-linejoin="round"/>
<path d="M21.6935 8.59863H14.2109" stroke="white" stroke-linecap="round" stroke-linejoin="round"/>
<path d="M27.5514 4.48218C25.4269 6.3246 24.1172 8.79995 24.1172 11.5197C24.1172 14.2395 25.4269 16.7148 27.5514 18.5572" stroke="white" stroke-linecap="round" stroke-linejoin="round"/>
<path d="M30.6562 20.5366C32.4799 21.3575 34.573 21.8338 36.8039 21.8338C38.8782 21.8338 40.8335 21.4202 42.5631 20.6995L48.7108 23.7578L46.7994 17.8483C48.4789 16.0999 49.4879 13.9064 49.4879 11.5125C49.4879 5.81607 43.8102 1.19751 36.8039 1.19751C34.573 1.19751 32.4799 1.66756 30.6562 2.49477" stroke="white" stroke-linecap="round" stroke-linejoin="round"/>
<path d="M11.2119 17.8549C9.53239 16.1064 8.52344 13.913 8.52344 11.5191C8.52344 5.82266 14.2011 1.2041 21.2074 1.2041C28.2136 1.2041 33.8913 5.82266 33.8913 11.5191C33.8913 17.2156 28.2136 21.8342 21.2074 21.8342C19.1331 21.8342 17.1778 21.4205 15.4482 20.6998L9.30052 23.7581L11.2119 17.8486V17.8549Z" stroke="white" stroke-linecap="round" stroke-linejoin="round"/>
</svg>
