<svg width="62" height="62" viewBox="0 0 62 62" fill="none" xmlns="http://www.w3.org/2000/svg">
<path d="M48.7656 53.4646V52.5799C48.7656 51.99 48.9907 51.4235 49.4098 51.0121L59.4214 41.0005C60.4924 39.9295 61.0978 38.4704 61.0978 36.9571V30.8492C61.0978 30.0343 61.0202 29.2271 60.865 28.4278L59.0023 19.0059C58.8083 18.0436 57.8304 17.4538 56.8914 17.7331L56.643 17.803C54.4389 18.4549 53.1428 20.7444 53.7171 22.9718L54.9278 27.7215L54.1362 32.0133" stroke="white" stroke-linecap="round" stroke-linejoin="round"/>
<path d="M36.0078 53.4647V47.2094C36.0078 43.0185 38.9259 39.5105 42.8375 38.6025C44.2888 38.2688 45.6469 37.5936 46.7179 36.5614L50.9011 32.5412C51.9954 31.4469 53.7727 31.4469 54.8747 32.5412C55.969 33.6355 55.969 35.4127 54.8747 36.5148L49.3644 42.0251" stroke="white" stroke-linecap="round" stroke-linejoin="round"/>
<path d="M50.2979 53.4639H33.9999C33.3441 53.4639 32.8125 53.9955 32.8125 54.6513V59.8123C32.8125 60.4681 33.3441 60.9998 33.9999 60.9998H50.2979C50.9537 60.9998 51.4854 60.4681 51.4854 59.8123V54.6513C51.4854 53.9955 50.9537 53.4639 50.2979 53.4639Z" stroke="white" stroke-linecap="round" stroke-linejoin="round"/>
<path d="M38.8872 57.2356C38.8872 58.0272 38.243 58.6713 37.4514 58.6713C36.6598 58.6713 36.0156 58.0272 36.0156 57.2356C36.0156 56.444 36.6598 55.7998 37.4514 55.7998C38.243 55.7998 38.8872 56.444 38.8872 57.2356Z" stroke="white" stroke-linecap="round" stroke-linejoin="round"/>
<path d="M7.86778 32.0209L7.07616 27.7291L8.28687 22.9794C8.85342 20.752 7.55734 18.4625 5.35323 17.8106L5.10488 17.7407C4.1658 17.4613 3.18792 18.0512 2.9939 19.0135L1.13903 28.4353C0.976047 29.2269 0.898438 30.0418 0.898438 30.8567V36.9646C0.898438 38.478 1.50379 39.9371 2.5748 41.0081L12.5864 51.0197C13.0055 51.4311 13.2384 51.9976 13.2384 52.5874V53.4722" stroke="white" stroke-linecap="round" stroke-linejoin="round"/>
<path d="M25.9845 53.4647V47.2094C25.9845 43.0185 23.0664 39.5105 19.1548 38.6025C17.7035 38.2688 16.3454 37.5936 15.2744 36.5614L11.0912 32.5412C9.99691 31.4469 8.21965 31.4469 7.1176 32.5412C6.0233 33.6355 6.0233 35.4127 7.1176 36.5148L12.6279 42.0251" stroke="white" stroke-linecap="round" stroke-linejoin="round"/>
<path d="M11.6942 60.9998H27.9923C28.6481 60.9998 29.1797 60.4681 29.1797 59.8123V54.6513C29.1797 53.9955 28.6481 53.4639 27.9923 53.4639H11.6942C11.0384 53.4639 10.5068 53.9955 10.5068 54.6513V59.8123C10.5068 60.4681 11.0384 60.9998 11.6942 60.9998Z" stroke="white" stroke-linecap="round" stroke-linejoin="round"/>
<path d="M23.1094 57.2356C23.1094 58.0272 23.7535 58.6713 24.5452 58.6713C25.3368 58.6713 25.9809 58.0272 25.9809 57.2356C25.9809 56.444 25.3368 55.7998 24.5452 55.7998C23.7535 55.7998 23.1094 56.444 23.1094 57.2356Z" stroke="white" stroke-linecap="round" stroke-linejoin="round"/>
<path d="M46.0116 17.9422V14.0772L42.7287 13.7435C42.4183 12.1292 41.7896 10.6314 40.8971 9.31975L42.977 6.76639L40.2452 4.03454L37.6918 6.11447C36.3802 5.22196 34.8824 4.59332 33.2681 4.28288L32.9344 1H29.0694L28.7357 4.28288C27.1214 4.59332 25.6235 5.22196 24.3119 6.11447L21.7586 4.03454L19.0267 6.76639L21.1067 9.31975C20.2141 10.6314 19.5855 12.1292 19.2751 13.7435L15.9922 14.0772V17.9422L19.2751 18.2759C19.5855 19.8902 20.2141 21.388 21.1067 22.6996L19.0267 25.253L21.7586 27.9849L24.3119 25.9049C25.6235 26.7974 27.1214 27.4261 28.7357 27.7365L29.0694 31.0194H32.9344L33.2681 27.7365C34.8824 27.4261 36.3802 26.7974 37.6918 25.9049L40.2452 27.9849L42.977 25.253L40.8971 22.6996C41.7896 21.388 42.4183 19.8902 42.7287 18.2759L46.0116 17.9422Z" stroke="white" stroke-linecap="round" stroke-linejoin="round"/>
<path d="M37.7694 16.0099C37.7694 19.7507 34.7349 22.7853 30.9941 22.7853C27.2533 22.7853 24.2188 19.7507 24.2188 16.0099C24.2188 12.2692 27.2533 9.23462 30.9941 9.23462C34.7349 9.23462 37.7694 12.2692 37.7694 16.0099Z" stroke="white" stroke-linecap="round" stroke-linejoin="round"/>
</svg>
