<svg width="64" height="60" viewBox="0 0 64 60" fill="none" xmlns="http://www.w3.org/2000/svg">
<path d="M45.4424 44.0417V35.795C45.4424 33.5356 44.1149 31.484 42.0499 30.5587L34.7486 27.3003C34.7486 27.3003 32.469 31.2158 26.0259 31.2158C19.5828 31.2158 17.3032 27.3003 17.3032 27.3003L10.0019 30.5587C7.93688 31.4773 6.60938 33.5289 6.60938 35.795V40.2402" stroke="white" stroke-linecap="round" stroke-linejoin="round"/>
<path d="M32.9483 18.4906C32.8612 18.8258 32.774 19.8919 32.6936 20.1668C32.1974 21.8697 30.5012 23.3984 29.1736 24.4979C28.1545 25.336 27.5914 26.0199 26.0292 25.8992C24.467 26.0199 23.8971 25.336 22.8847 24.4979C21.5572 23.3984 19.861 21.8697 19.3648 20.1668C19.2844 19.8919 19.1972 18.8258 19.11 18.4906C16.7701 17.2704 16.5355 14.85 17.5076 13.8309C17.93 13.3817 17.8026 13.5091 18.0172 13.3549C17.8429 11.3234 17.5009 9.29191 17.6887 7.42133C18.1446 2.8555 21.8455 1.60174 23.2669 1.85651C30.3604 -1.04658 34.2155 4.08914 34.3831 7.42133C34.4837 9.29861 34.2356 11.3234 34.0546 13.3549C34.2088 13.4756 34.135 13.375 34.5708 13.8309C35.5497 14.85 35.3083 17.2704 32.9684 18.4906H32.9483Z" stroke="white" stroke-linecap="round" stroke-linejoin="round"/>
<path d="M18.1987 13.1671C17.4746 8.58119 22.2885 8.31971 23.8238 6.03345C23.8238 6.03345 25.1581 8.10517 31.6481 8.67506C32.3454 8.7354 34.3434 9.60029 33.7601 13.1671" stroke="white" stroke-linecap="round" stroke-linejoin="round"/>
<path d="M17.3125 27.3007L20.9129 25.9128L21.114 22.8823" stroke="white" stroke-linecap="round" stroke-linejoin="round"/>
<path d="M34.7312 27.3007L31.1308 25.9128L30.9297 22.8823" stroke="white" stroke-linecap="round" stroke-linejoin="round"/>
<path d="M46.9713 32.2349V24.1425H51.7584L43.7464 14.8901L35.7344 24.1425H40.5282V27.3003" stroke="white" stroke-linecap="round" stroke-linejoin="round"/>
<path d="M58.0349 44.7725V12.2351H62.8287L54.8167 2.9895L46.8047 12.2351H51.5918V20.0795" stroke="white" stroke-linecap="round" stroke-linejoin="round"/>
<path d="M20.775 50.4585V47.9308L18.6295 47.7096C18.4284 46.6569 18.0127 45.6781 17.4361 44.8199L18.7972 43.1504L17.0137 41.367L15.3443 42.728C14.4861 42.1447 13.5072 41.7358 12.4546 41.5346L12.2334 39.3892H9.70572L9.48447 41.5346C8.43184 41.7358 7.45297 42.1515 6.59479 42.728L4.92534 41.367L3.14192 43.1504L4.50295 44.8199C3.91965 45.6781 3.51067 46.6569 3.30953 47.7096L1.16406 47.9308V50.4585L3.30953 50.6797C3.51067 51.7323 3.92636 52.7112 4.50295 53.5694L3.14192 55.2388L4.92534 57.0223L6.59479 55.6612C7.45297 56.2445 8.43184 56.6535 9.48447 56.8546L9.70572 59.0001H12.2334L12.4546 56.8546C13.5072 56.6535 14.4861 56.2378 15.3443 55.6612L17.0137 57.0223L18.7972 55.2388L17.4361 53.5694C18.0194 52.7112 18.4284 51.7323 18.6295 50.6797L20.775 50.4585Z" stroke="white" stroke-linecap="round" stroke-linejoin="round"/>
<path d="M15.3891 49.1982C15.3891 51.6454 13.4046 53.6233 10.9641 53.6233C8.52362 53.6233 6.53906 51.6387 6.53906 49.1982C6.53906 46.7578 8.52362 44.7732 10.9641 44.7732C13.4046 44.7732 15.3891 46.7578 15.3891 49.1982Z" stroke="white" stroke-linecap="round" stroke-linejoin="round"/>
<path d="M50.1726 39.8916L53.1964 46.0196L59.9546 46.9985L55.067 51.7654L56.2202 58.4969L50.1726 55.3189L44.1318 58.4969L45.285 51.7654L40.3906 46.9985L47.1489 46.0196L50.1726 39.8916Z" stroke="white" stroke-linecap="round" stroke-linejoin="round"/>
<path d="M51.5859 26.7307V37.3977" stroke="white" stroke-linecap="round" stroke-linejoin="round"/>
</svg>
